<?xml version="1.0" encoding="utf-8"?>
<!-- Generator: Adobe Illustrator 24.0.1, SVG Export Plug-In . SVG Version: 6.00 Build 0)  -->
<svg version="1.1" id="Layer_1" xmlns="http://www.w3.org/2000/svg" xmlns:xlink="http://www.w3.org/1999/xlink" x="0px" y="0px"
	 viewBox="0 0 212 108.2" style="enable-background:new 0 0 212 108.2;" xml:space="preserve">
<style type="text/css">
	.st0{display:none;}
	.st1{display:inline;fill:#38364C;}
	.st2{display:inline;fill:#8E9A86;}
	.st3{display:inline;fill:#7CB6E6;}
	.st4{display:inline;fill:#A1D0F7;}
	.st5{display:inline;}
	.st6{fill:#404041;}
	.st7{fill:#17155B;}
	.st8{fill:#F15A24;}
</style>
<g id="Layer_1_1_" class="st0">
	<path class="st1" d="M754.9,1242.4c-0.3,0.5-0.5,0.8-0.5,0.8C754.5,1243,754.7,1242.7,754.9,1242.4"/>
	<path class="st1" d="M779.8,1243.4c0.1,0.1,0.2,0.1,0.2,0.2C780,1243.6,779.9,1243.5,779.8,1243.4"/>
	<path class="st1" d="M772.6,1253.9c0.3,0.6,0.5,1.1,0.5,1.3C773.1,1255.5,772.9,1254.9,772.6,1253.9"/>
	<path class="st1" d="M759.1,1188.3l0.2-4C759.4,1185.9,759.5,1187.5,759.1,1188.3"/>
	<path class="st1" d="M778.1,1218.5c0.9,0.4,1.6,0.7,1.7,0.8C779.9,1219.4,779.2,1219.1,778.1,1218.5"/>
	<rect x="-34.5" y="770.5" class="st1" width="57.2" height="41"/>
	<rect x="70.1" y="770.5" class="st2" width="66.9" height="41"/>
	<path class="st3" d="M51.3,57.1L36.2,30.7h-3.9v26.4H15.5v-69.8h28.8c5.5,0,10.2,1,14,2.9S65-5.3,66.9-2s2.9,7.1,2.9,11.4
		c0,5.1-1.4,9.4-4.2,12.9c-2.8,3.6-6.9,6-12.2,7.3L70,57.1H51.3z M32.3,19.2h10.5c3.4,0,5.8-0.7,7.4-2.2s2.4-3.7,2.4-6.6
		c0-2.8-0.8-4.9-2.4-6.5s-4.1-2.4-7.4-2.4H32.3V19.2z"/>
	<path class="st3" d="M121.5,44.3H95.3L91,57.1H73.2l25.6-69.3h19.4l25.6,69.3h-18L121.5,44.3z M117.1,31.5l-8.7-25.7l-8.8,25.7
		H117.1z"/>
	<path class="st4" d="M208.7,40.2c-2.9,5.3-7.1,9.4-12.6,12.4s-12,4.4-19.4,4.4h-26.4v-69.7h26.4c7.5,0,14,1.4,19.4,4.3
		c5.5,2.9,9.7,7,12.6,12.2c2.9,5.3,4.4,11.3,4.4,18.2S211.6,35,208.7,40.2z M190.5,36.7c3.6-3.5,5.5-8.4,5.5-14.7
		s-1.8-11.2-5.5-14.7s-8.8-5.2-15.4-5.2h-8V42h8C181.8,42,186.9,40.2,190.5,36.7z"/>
	<g class="st5">
		<g>
			<path class="st6" d="M15.5,68.3h14.2l3,3.1v8.3l-3,3.1h-11v8.4h-3.3V68.3H15.5z M29.4,71.4H18.7v8.3h10.7L29.4,71.4L29.4,71.4z"
				/>
			<path class="st6" d="M48.3,68.3h11.1l3.1,3.1v19.7h-3.3v-8.4H48.3v8.4H45V71.4L48.3,68.3z M59.3,71.4H48.4v8.2h10.9V71.4z"/>
			<path class="st6" d="M78,67.9l11.1,17.6h0.1V69.4l3.1-1.4v23.2h-3.1l-11-17.6h-0.1v17.6H75V69.5L78,67.9z"/>
			<path class="st6" d="M107.8,68.3H119l3.1,3.1v19.7h-3.3v-8.4h-10.9v8.4h-3.3V71.4L107.8,68.3z M118.8,71.4H108v8.2h10.9
				L118.8,71.4L118.8,71.4z"/>
			<path class="st6" d="M135.7,67.9l7.3,15.9l7.8-15.9l3.7,1.8v21.4h-3.1V73.3h-0.1l-6.7,14.4h-3.2L135,73.3h-0.1v17.8h-3.1V69.7
				L135.7,67.9z"/>
			<path class="st6" d="M167.4,68.3h11.1l3.1,3.1v19.7h-3.3v-8.4h-10.9v8.4h-3.3V71.4L167.4,68.3z M178.4,71.4h-10.9v8.2h10.9V71.4
				L178.4,71.4z"/>
		</g>
	</g>
</g>
<g>
	<g>
		<path class="st7" d="M20,94.2c0,0.6-0.1,1.1-0.2,1.5c-0.1,0.4-0.3,0.8-0.6,1.1c-0.3,0.3-0.7,0.6-1.1,0.7s-1,0.3-1.6,0.3h-1.8v-7.1
			h2.1c0.5,0,1,0.1,1.4,0.2c0.4,0.1,0.7,0.3,1,0.6c0.3,0.3,0.5,0.6,0.6,1.1C20,93.1,20,93.6,20,94.2z M18.6,94.3c0-0.4,0-0.7-0.1-1
			c-0.1-0.3-0.2-0.6-0.3-0.8c-0.1-0.2-0.3-0.4-0.6-0.5c-0.2-0.1-0.6-0.2-0.9-0.2H16v4.9h0.6c0.7,0,1.2-0.2,1.5-0.6
			C18.4,95.7,18.6,95.1,18.6,94.3z"/>
		<path class="st7" d="M21.1,91.8v-1.1h4.5v1.1h-1.6v4.9h1.6v1.1h-4.5v-1.1h1.6v-4.9H21.1z"/>
		<path class="st7" d="M29.5,94.8v-1.1h2.5v3.8c-0.3,0.2-0.7,0.3-1,0.3c-0.4,0.1-0.7,0.1-1.2,0.1c-0.5,0-0.9-0.1-1.3-0.2
			c-0.4-0.2-0.7-0.4-1-0.7c-0.3-0.3-0.5-0.7-0.6-1.1c-0.1-0.4-0.2-1-0.2-1.5c0-0.6,0.1-1.1,0.2-1.6c0.2-0.5,0.4-0.9,0.7-1.2
			s0.7-0.6,1.1-0.7c0.4-0.2,0.9-0.3,1.5-0.3c0.3,0,0.6,0,1,0.1c0.3,0.1,0.6,0.1,0.9,0.2v1.3c-0.3-0.1-0.6-0.2-0.9-0.3
			c-0.3-0.1-0.7-0.1-1-0.1c-0.3,0-0.6,0.1-0.9,0.2c-0.3,0.1-0.5,0.3-0.6,0.5s-0.3,0.5-0.4,0.8c-0.1,0.3-0.1,0.7-0.1,1.1
			c0,0.4,0,0.7,0.1,1c0.1,0.3,0.2,0.6,0.3,0.8c0.2,0.2,0.4,0.4,0.6,0.5c0.2,0.1,0.5,0.2,0.9,0.2c0.1,0,0.2,0,0.2,0
			c0.1,0,0.1,0,0.2,0c0.1,0,0.1,0,0.2,0c0,0,0.1,0,0.2,0v-1.8H29.5z"/>
		<path class="st7" d="M33.4,91.8v-1.1h4.5v1.1h-1.6v4.9h1.6v1.1h-4.5v-1.1H35v-4.9H33.4z"/>
		<path class="st7" d="M42.4,91.8v6h-1.4v-6h-1.9v-1.1h5.3v1.1H42.4z"/>
		<path class="st7" d="M49.4,97.8L49,96.4h-2.5l-0.4,1.4h-1.3l2.1-7.1h1.9l2.1,7.1H49.4z M47.8,92l-0.9,3.3h1.9L47.8,92z"/>
		<path class="st7" d="M52,97.8v-7.1h1.4v6h3v1.1H52z"/>
		<path class="st7" d="M66.9,91.8v6h-1.4v-6h-1.9v-1.1h5.3v1.1H66.9z"/>
		<path class="st7" d="M73.6,97.8l-1-2.3c-0.1-0.2-0.2-0.4-0.4-0.5c-0.2-0.1-0.4-0.2-0.6-0.2h-0.3v2.9H70v-7.1h2.1
			c0.4,0,0.7,0,1.1,0.1c0.3,0.1,0.6,0.2,0.8,0.3c0.2,0.2,0.4,0.4,0.5,0.6c0.1,0.3,0.2,0.6,0.2,0.9c0,0.3,0,0.5-0.1,0.7
			c-0.1,0.2-0.2,0.4-0.3,0.5c-0.1,0.1-0.3,0.3-0.5,0.4c-0.2,0.1-0.4,0.2-0.6,0.2c0.2,0,0.3,0.1,0.5,0.3c0.1,0.2,0.3,0.4,0.4,0.7
			l1.1,2.4H73.6z M73.2,92.8c0-0.3-0.1-0.6-0.3-0.8c-0.2-0.2-0.6-0.2-1-0.2h-0.6v2h0.5c0.2,0,0.4,0,0.6-0.1c0.2,0,0.3-0.1,0.4-0.2
			c0.1-0.1,0.2-0.2,0.3-0.3C73.2,93.1,73.2,93,73.2,92.8z"/>
		<path class="st7" d="M80,97.8l-0.4-1.4h-2.5l-0.4,1.4h-1.3l2.1-7.1h1.9l2.1,7.1H80z M78.4,92l-0.9,3.3h1.9L78.4,92z"/>
		<path class="st7" d="M85.5,97.8l-1.9-4.2l-0.4-0.9v2.9v2.2H82v-7.1h1.6l1.9,4.3l0.3,0.8v-3.1v-2h1.2v7.1H85.5z"/>
		<path class="st7" d="M93.2,95.7c0,0.4-0.1,0.7-0.2,1c-0.1,0.3-0.3,0.5-0.6,0.7c-0.3,0.2-0.6,0.3-0.9,0.4c-0.4,0.1-0.7,0.1-1.2,0.1
			c-0.4,0-0.7,0-1.1-0.1c-0.3,0-0.7-0.1-1-0.2v-1.3c0.2,0.1,0.3,0.1,0.5,0.2s0.4,0.1,0.5,0.1c0.2,0,0.4,0.1,0.5,0.1
			c0.2,0,0.4,0,0.5,0c0.3,0,0.5,0,0.6-0.1c0.2,0,0.3-0.1,0.4-0.2c0.1-0.1,0.2-0.2,0.2-0.3c0.1-0.1,0.1-0.2,0.1-0.3
			c0-0.2,0-0.3-0.1-0.4s-0.2-0.2-0.4-0.3c-0.2-0.1-0.3-0.2-0.6-0.2c-0.2-0.1-0.4-0.1-0.6-0.2c-0.2-0.1-0.4-0.2-0.6-0.3
			c-0.2-0.1-0.4-0.2-0.6-0.4c-0.2-0.2-0.3-0.3-0.4-0.6c-0.1-0.2-0.1-0.5-0.1-0.8c0-0.3,0.1-0.5,0.2-0.8c0.1-0.2,0.3-0.5,0.5-0.7
			c0.2-0.2,0.5-0.3,0.8-0.4c0.3-0.1,0.8-0.2,1.2-0.2c0.1,0,0.3,0,0.4,0s0.3,0,0.5,0c0.2,0,0.3,0,0.4,0.1c0.1,0,0.3,0.1,0.4,0.1V92
			c-0.1,0-0.2-0.1-0.4-0.1c-0.1,0-0.3-0.1-0.4-0.1c-0.1,0-0.3,0-0.4-0.1c-0.1,0-0.3,0-0.4,0c-0.2,0-0.4,0-0.6,0.1
			c-0.2,0-0.3,0.1-0.4,0.2c-0.1,0.1-0.2,0.1-0.2,0.2c0,0.1-0.1,0.2-0.1,0.3c0,0.1,0,0.3,0.1,0.4c0.1,0.1,0.2,0.2,0.4,0.3
			c0.2,0.1,0.4,0.2,0.6,0.2s0.4,0.2,0.6,0.2c0.2,0.1,0.4,0.2,0.6,0.3c0.2,0.1,0.4,0.2,0.6,0.4c0.2,0.2,0.3,0.3,0.4,0.6
			C93.1,95.1,93.2,95.4,93.2,95.7z"/>
		<path class="st7" d="M96.1,91.8v2h2.7v1.1h-2.7v2.9h-1.4v-7.1H99v1.1H96.1z"/>
		<path class="st7" d="M105.8,94.2c0,0.6-0.1,1.2-0.2,1.7c-0.2,0.5-0.4,0.9-0.6,1.2c-0.3,0.3-0.6,0.5-0.9,0.7
			c-0.4,0.1-0.7,0.2-1.1,0.2c-0.9,0-1.6-0.3-2.1-0.9c-0.5-0.6-0.7-1.5-0.7-2.7c0-0.6,0.1-1.2,0.2-1.7c0.2-0.5,0.4-0.9,0.6-1.2
			c0.3-0.3,0.6-0.5,0.9-0.7c0.4-0.1,0.7-0.2,1.1-0.2c0.9,0,1.6,0.3,2.1,0.9C105.6,92.1,105.8,93,105.8,94.2z M104.4,94.3
			c0-0.8-0.1-1.5-0.3-1.9c-0.2-0.4-0.6-0.6-1.1-0.6c-0.3,0-0.5,0.1-0.7,0.2c-0.2,0.1-0.3,0.3-0.4,0.5s-0.2,0.5-0.3,0.8
			s-0.1,0.6-0.1,1c0,0.8,0.1,1.5,0.3,1.9c0.2,0.4,0.6,0.6,1.1,0.6c0.3,0,0.5-0.1,0.7-0.2c0.2-0.1,0.3-0.3,0.4-0.5s0.2-0.5,0.3-0.8
			C104.4,95,104.4,94.7,104.4,94.3z"/>
		<path class="st7" d="M110.3,97.8l-1-2.3c-0.1-0.2-0.2-0.4-0.4-0.5c-0.2-0.1-0.4-0.2-0.6-0.2H108v2.9h-1.3v-7.1h2.1
			c0.4,0,0.7,0,1.1,0.1c0.3,0.1,0.6,0.2,0.8,0.3c0.2,0.2,0.4,0.4,0.5,0.6c0.1,0.3,0.2,0.6,0.2,0.9c0,0.3,0,0.5-0.1,0.7
			c-0.1,0.2-0.2,0.4-0.3,0.5c-0.1,0.1-0.3,0.3-0.5,0.4c-0.2,0.1-0.4,0.2-0.6,0.2c0.2,0,0.3,0.1,0.5,0.3c0.1,0.2,0.3,0.4,0.4,0.7
			l1.1,2.4H110.3z M110,92.8c0-0.3-0.1-0.6-0.3-0.8c-0.2-0.2-0.6-0.2-1-0.2H108v2h0.5c0.2,0,0.4,0,0.6-0.1c0.2,0,0.3-0.1,0.4-0.2
			c0.1-0.1,0.2-0.2,0.3-0.3C109.9,93.1,110,93,110,92.8z"/>
		<path class="st7" d="M116.8,97.8l-0.1-4l0-1.6l-0.3,1.1l-0.8,2.4h-0.8l-0.7-2.4l-0.3-1.1l0,1.6l-0.1,4h-1.1l0.3-7.1h1.5l0.6,2
			l0.3,1.1l0.3-1.1l0.7-2.1h1.5l0.4,7.1H116.8z"/>
		<path class="st7" d="M122.9,97.8l-0.4-1.4H120l-0.4,1.4h-1.3l2.1-7.1h1.9l2.1,7.1H122.9z M121.2,92l-0.9,3.3h1.9L121.2,92z"/>
		<path class="st7" d="M128.1,91.8v6h-1.4v-6h-1.9v-1.1h5.3v1.1H128.1z"/>
		<path class="st7" d="M131.3,91.8v-1.1h4.5v1.1h-1.6v4.9h1.6v1.1h-4.5v-1.1h1.6v-4.9H131.3z"/>
		<path class="st7" d="M142.5,94.2c0,0.6-0.1,1.2-0.2,1.7c-0.2,0.5-0.4,0.9-0.6,1.2c-0.3,0.3-0.6,0.5-0.9,0.7
			c-0.4,0.1-0.7,0.2-1.1,0.2c-0.9,0-1.6-0.3-2.1-0.9c-0.5-0.6-0.7-1.5-0.7-2.7c0-0.6,0.1-1.2,0.2-1.7c0.2-0.5,0.4-0.9,0.6-1.2
			c0.3-0.3,0.6-0.5,0.9-0.7c0.4-0.1,0.7-0.2,1.1-0.2c0.9,0,1.6,0.3,2.1,0.9C142.3,92.1,142.5,93,142.5,94.2z M141.1,94.3
			c0-0.8-0.1-1.5-0.3-1.9c-0.2-0.4-0.6-0.6-1.1-0.6c-0.3,0-0.5,0.1-0.7,0.2c-0.2,0.1-0.3,0.3-0.4,0.5c-0.1,0.2-0.2,0.5-0.3,0.8
			c-0.1,0.3-0.1,0.6-0.1,1c0,0.8,0.1,1.5,0.3,1.9c0.2,0.4,0.6,0.6,1.1,0.6c0.3,0,0.5-0.1,0.7-0.2c0.2-0.1,0.3-0.3,0.4-0.5
			s0.2-0.5,0.3-0.8C141.1,95,141.1,94.7,141.1,94.3z"/>
		<path class="st7" d="M146.7,97.8l-1.9-4.2l-0.4-0.9v2.9v2.2h-1.2v-7.1h1.6l1.9,4.3l0.3,0.8v-3.1v-2h1.2v7.1H146.7z"/>
		<path class="st7" d="M160.5,95.7c0,0.4-0.1,0.7-0.2,1c-0.1,0.3-0.3,0.5-0.6,0.7s-0.6,0.3-0.9,0.4c-0.4,0.1-0.7,0.1-1.2,0.1
			c-0.4,0-0.7,0-1.1-0.1c-0.3,0-0.7-0.1-1-0.2v-1.3c0.2,0.1,0.3,0.1,0.5,0.2c0.2,0.1,0.4,0.1,0.5,0.1c0.2,0,0.4,0.1,0.5,0.1
			c0.2,0,0.4,0,0.5,0c0.3,0,0.5,0,0.6-0.1c0.2,0,0.3-0.1,0.4-0.2c0.1-0.1,0.2-0.2,0.2-0.3c0.1-0.1,0.1-0.2,0.1-0.3
			c0-0.2,0-0.3-0.1-0.4c-0.1-0.1-0.2-0.2-0.4-0.3c-0.2-0.1-0.3-0.2-0.6-0.2c-0.2-0.1-0.4-0.1-0.6-0.2c-0.2-0.1-0.4-0.2-0.6-0.3
			c-0.2-0.1-0.4-0.2-0.6-0.4c-0.2-0.2-0.3-0.3-0.4-0.6c-0.1-0.2-0.1-0.5-0.1-0.8c0-0.3,0.1-0.5,0.2-0.8c0.1-0.2,0.3-0.5,0.5-0.7
			c0.2-0.2,0.5-0.3,0.8-0.4c0.3-0.1,0.8-0.2,1.2-0.2c0.1,0,0.3,0,0.4,0s0.3,0,0.5,0c0.2,0,0.3,0,0.4,0.1c0.1,0,0.3,0.1,0.4,0.1V92
			c-0.1,0-0.2-0.1-0.4-0.1c-0.1,0-0.3-0.1-0.4-0.1c-0.1,0-0.3,0-0.4-0.1c-0.1,0-0.3,0-0.4,0c-0.2,0-0.4,0-0.6,0.1
			c-0.2,0-0.3,0.1-0.4,0.2c-0.1,0.1-0.2,0.1-0.2,0.2c0,0.1-0.1,0.2-0.1,0.3c0,0.1,0,0.3,0.1,0.4c0.1,0.1,0.2,0.2,0.4,0.3
			c0.2,0.1,0.4,0.2,0.6,0.2c0.2,0.1,0.4,0.2,0.6,0.2c0.2,0.1,0.4,0.2,0.6,0.3c0.2,0.1,0.4,0.2,0.6,0.4c0.2,0.2,0.3,0.3,0.4,0.6
			C160.4,95.1,160.5,95.4,160.5,95.7z"/>
		<path class="st7" d="M164.8,95.3v2.5h-1.4v-2.5l-2.3-4.6h1.5l1,2.2l0.5,1.1l0.5-1.1l1.1-2.2h1.4L164.8,95.3z"/>
		<path class="st7" d="M172.7,95.7c0,0.4-0.1,0.7-0.2,1c-0.1,0.3-0.3,0.5-0.6,0.7s-0.6,0.3-0.9,0.4c-0.4,0.1-0.7,0.1-1.2,0.1
			c-0.4,0-0.7,0-1.1-0.1c-0.3,0-0.7-0.1-1-0.2v-1.3c0.2,0.1,0.3,0.1,0.5,0.2c0.2,0.1,0.4,0.1,0.5,0.1c0.2,0,0.4,0.1,0.5,0.1
			c0.2,0,0.4,0,0.5,0c0.3,0,0.5,0,0.6-0.1c0.2,0,0.3-0.1,0.4-0.2c0.1-0.1,0.2-0.2,0.2-0.3c0.1-0.1,0.1-0.2,0.1-0.3
			c0-0.2,0-0.3-0.1-0.4c-0.1-0.1-0.2-0.2-0.4-0.3c-0.2-0.1-0.3-0.2-0.6-0.2c-0.2-0.1-0.4-0.1-0.6-0.2c-0.2-0.1-0.4-0.2-0.6-0.3
			c-0.2-0.1-0.4-0.2-0.6-0.4c-0.2-0.2-0.3-0.3-0.4-0.6c-0.1-0.2-0.1-0.5-0.1-0.8c0-0.3,0.1-0.5,0.2-0.8c0.1-0.2,0.3-0.5,0.5-0.7
			c0.2-0.2,0.5-0.3,0.8-0.4c0.3-0.1,0.8-0.2,1.2-0.2c0.1,0,0.3,0,0.4,0s0.3,0,0.5,0c0.2,0,0.3,0,0.4,0.1c0.1,0,0.3,0.1,0.4,0.1V92
			c-0.1,0-0.2-0.1-0.4-0.1c-0.1,0-0.3-0.1-0.4-0.1c-0.1,0-0.3,0-0.4-0.1c-0.1,0-0.3,0-0.4,0c-0.2,0-0.4,0-0.6,0.1
			c-0.2,0-0.3,0.1-0.4,0.2c-0.1,0.1-0.2,0.1-0.2,0.2c0,0.1-0.1,0.2-0.1,0.3c0,0.1,0,0.3,0.1,0.4c0.1,0.1,0.2,0.2,0.4,0.3
			c0.2,0.1,0.4,0.2,0.6,0.2c0.2,0.1,0.4,0.2,0.6,0.2c0.2,0.1,0.4,0.2,0.6,0.3c0.2,0.1,0.4,0.2,0.6,0.4c0.2,0.2,0.3,0.3,0.4,0.6
			C172.7,95.1,172.7,95.4,172.7,95.7z"/>
		<path class="st7" d="M177.1,91.8v6h-1.4v-6h-1.9v-1.1h5.3v1.1H177.1z"/>
		<path class="st7" d="M180.4,97.8v-7.1h4.3v1.1h-2.9v1.8h2.8v1.1h-2.8v2h2.9v1.1H180.4z"/>
		<path class="st7" d="M190.2,97.8l-0.1-4l0-1.6l-0.3,1.1l-0.8,2.4h-0.8l-0.7-2.4l-0.3-1.1l0,1.6l-0.1,4h-1.1l0.3-7.1h1.5l0.6,2
			l0.3,1.1l0.3-1.1l0.7-2.1h1.5l0.4,7.1H190.2z"/>
		<path class="st7" d="M197.2,95.7c0,0.4-0.1,0.7-0.2,1c-0.1,0.3-0.3,0.5-0.6,0.7s-0.6,0.3-0.9,0.4c-0.4,0.1-0.7,0.1-1.2,0.1
			c-0.4,0-0.7,0-1.1-0.1c-0.3,0-0.7-0.1-1-0.2v-1.3c0.2,0.1,0.3,0.1,0.5,0.2c0.2,0.1,0.4,0.1,0.5,0.1c0.2,0,0.4,0.1,0.5,0.1
			c0.2,0,0.4,0,0.5,0c0.3,0,0.5,0,0.6-0.1c0.2,0,0.3-0.1,0.4-0.2c0.1-0.1,0.2-0.2,0.2-0.3c0.1-0.1,0.1-0.2,0.1-0.3
			c0-0.2,0-0.3-0.1-0.4s-0.2-0.2-0.4-0.3c-0.2-0.1-0.3-0.2-0.6-0.2c-0.2-0.1-0.4-0.1-0.6-0.2c-0.2-0.1-0.4-0.2-0.6-0.3
			c-0.2-0.1-0.4-0.2-0.6-0.4c-0.2-0.2-0.3-0.3-0.4-0.6c-0.1-0.2-0.1-0.5-0.1-0.8c0-0.3,0.1-0.5,0.2-0.8c0.1-0.2,0.3-0.5,0.5-0.7
			c0.2-0.2,0.5-0.3,0.8-0.4c0.3-0.1,0.8-0.2,1.2-0.2c0.1,0,0.3,0,0.4,0c0.2,0,0.3,0,0.5,0c0.2,0,0.3,0,0.4,0.1
			c0.1,0,0.3,0.1,0.4,0.1V92c-0.1,0-0.2-0.1-0.4-0.1c-0.1,0-0.3-0.1-0.4-0.1c-0.1,0-0.3,0-0.4-0.1c-0.1,0-0.3,0-0.4,0
			c-0.2,0-0.4,0-0.6,0.1c-0.2,0-0.3,0.1-0.4,0.2c-0.1,0.1-0.2,0.1-0.2,0.2c0,0.1-0.1,0.2-0.1,0.3c0,0.1,0,0.3,0.1,0.4
			c0.1,0.1,0.2,0.2,0.4,0.3c0.2,0.1,0.4,0.2,0.6,0.2s0.4,0.2,0.6,0.2c0.2,0.1,0.4,0.2,0.6,0.3c0.2,0.1,0.4,0.2,0.6,0.4
			c0.2,0.2,0.3,0.3,0.4,0.6C197.2,95.1,197.2,95.4,197.2,95.7z"/>
	</g>
	<g>
		<path class="st7" d="M118,55.9v-7.8h-7.4v-6.7H95.3v10.7h3.3v8.9c0,1.9-0.2,3.3-0.7,4.3c-0.5,1-1.3,1.5-2.5,1.5
			c-1.2,0-2.1-0.5-2.5-1.5c-0.5-1-0.7-2.4-0.7-4.3V30.9c0-3.1,1.2-4.6,3.6-4.6c1.1,0,1.8,0.4,2.2,1.2c0.4,0.8,0.6,2,0.6,3.5v5.6
			h12.2c0-4.9-0.4-9-1.3-12.1c-0.9-3.1-2.4-5.5-4.7-7.2c-2.3-1.6-5.5-2.5-9.6-2.5c-5.1,0-8.9,1.5-11.5,4.4c-2.6,3-3.8,7.3-3.8,13.1
			v26.8c0,6.4,1.1,11.2,3.3,14.4c2.2,3.2,5.6,4.8,10,4.8c4.6,0,8.1-1.9,10.3-5.8l2.1,5.2h5V60.4h-6v-7.8h5.6v3.3H118z"/>
		<g>
			<path class="st8" d="M51.1,30c0-4.8-1.2-8.5-3.4-11c-2.2-2.5-5.6-3.7-10-3.7h-9.9v7.1h-7.3v55.2h16.8c5,0,8.6-1.5,10.8-4.6
				c2.2-3.1,3.2-7.7,3.2-13.9L51.1,30z M38.7,63.3c0,2.2-1.1,3.3-3.4,3.3h-2.2V26.3h1.4c1.2,0,2.1,0.1,2.7,0.4
				c0.6,0.2,1,0.7,1.2,1.4c0.2,0.7,0.3,1.8,0.3,3.2V63.3z"/>
			<rect x="14.4" y="10.3" class="st8" width="7.8" height="7.8"/>
		</g>
		<path class="st7" d="M65.3,15.3c-0.9,2.2-2.4,3.9-4.5,5.3c-2.1,1.4-4.2,2.2-6.3,2.5v9.9c1.4,0,2.8-0.3,4.2-0.9
			c1.5-0.6,2.6-1.5,3.4-2.5v24h-5.3v7.8h7.8v-3.3h5.3v7.8h-7.7v11.8h13.2V15.3H65.3z"/>
		<g>
			<path class="st7" d="M126.9,77.7v-7.3h7.6V15.3h-10c-0.9,2.2-2.4,3.9-4.5,5.3c-2.1,1.4-4.2,2.2-6.3,2.5v9.9
				c1.4,0,2.8-0.3,4.2-0.9c1.5-0.6,2.6-1.5,3.4-2.5v48H126.9z"/>
			
				<rect x="132.4" y="74.8" transform="matrix(-1 4.482891e-11 -4.482891e-11 -1 272.6349 157.4353)" class="st7" width="7.8" height="7.8"/>
		</g>
		<g>
			<path class="st7" d="M196.5,52.4c-0.7-2-1.6-3.7-2.7-5.2c-1.1-1.5-2.5-3-4.2-4.7l-7.3-7c-2.3-2.2-3.5-4.3-3.5-6.3
				c0-0.9,0.2-1.6,0.7-2.2c0.5-0.5,1.2-0.8,2.2-0.8c0.8,0,1.5,0.2,1.9,0.7c0.5,0.5,0.7,1.1,0.7,2l0.1,4.3h12.7c0-6.3-1.2-11-3.7-14
				c-2.5-3-6.5-4.5-12.1-4.5c-4.7,0-8.3,1.4-10.7,4.2c-2.4,2.8-3.7,6.8-3.7,12.2c0,4.9,2.1,9.4,6.2,13.5l5.4,5.4
				c1.9,1.9,3.3,3.3,4,4.2c0.7,0.9,1.4,2,1.9,3.3c0.5,1.3,0.7,3,0.7,5c0,1.5-0.2,2.6-0.7,3.3c-0.4,0.7-1.2,1-2.3,1c-2,0-3-1.5-3-4.6
				v-7.8h-5.7v7H167c0.1,5.7,1.4,10,3.8,12.6c2.5,2.8,6.6,4.2,12.3,4.2c5.2,0,8.9-1.6,11.1-4.8c2.2-3.2,3.4-7.8,3.4-14
				C197.6,56.8,197.2,54.4,196.5,52.4z"/>
			<rect x="160.2" y="49.2" class="st7" width="7.8" height="7.8"/>
		</g>
		<g>
			<polygon class="st7" points="158,22.5 158,15.4 137.5,15.4 137.5,27.4 144.9,27.4 144.9,77.7 157.4,77.7 157.4,27.4 164.8,27.4 
				164.8,22.5 			"/>
			
				<rect x="163.6" y="10.3" transform="matrix(-1 -4.506274e-11 4.506274e-11 -1 334.9599 28.3336)" class="st7" width="7.8" height="7.8"/>
		</g>
	</g>
</g>
</svg>
