<?xml version="1.0" encoding="utf-8"?>
<!-- Generator: Adobe Illustrator 24.0.1, SVG Export Plug-In . SVG Version: 6.00 Build 0)  -->
<svg version="1.1" id="Layer_4" xmlns="http://www.w3.org/2000/svg" xmlns:xlink="http://www.w3.org/1999/xlink" x="0px" y="0px"
	 viewBox="0 0 564 500" style="enable-background:new 0 0 564 500;" xml:space="preserve">
<style type="text/css">
	.st0{fill:#F15A24;}
	.st1{fill:#EDEDED;}
	.st2{fill:#17155B;}
	.st3{fill:none;}
</style>
<g>
	<g>
		<g>
			<path class="st0" d="M369,97.1h2.2V84.5h17.6v12.6h2.2c1.5,0,2.7,1.2,2.7,2.7h-27.3C366.3,98.3,367.5,97.1,369,97.1z"/>
		</g>
	</g>
	<g>
		<defs>
			<path id="SVGID_1_" d="M432.8,82.8c0,1.6-1.3,2.8-2.8,2.8h-99.9c-1.6,0-2.8-1.3-2.8-2.8V75h105.5V82.8z"/>
		</defs>
		<use xlink:href="#SVGID_1_"  style="overflow:visible;fill:#17155B;"/>
		<clipPath id="SVGID_2_">
			<use xlink:href="#SVGID_1_"  style="overflow:visible;"/>
		</clipPath>
	</g>
	<g>
		<g>
			<path class="st1" d="M330,12h100.1c1.5,0,2.7,1.2,2.7,2.7v60.4c0,0.1-0.1,0.1-0.1,0.1H327.4c-0.1,0-0.1-0.1-0.1-0.1V14.7
				C327.3,13.2,328.5,12,330,12z"/>
		</g>
	</g>
	<g>
		<path class="st0" d="M23.1,303.8h34.5c5.8,0,10.5-4.7,10.5-10.5v-84.2c0-5.8-4.7-10.5-10.5-10.5H23.1c-5.8,0-10.5,4.7-10.5,10.5
			v84.2C12.6,299.1,17.3,303.8,23.1,303.8z"/>
		<path class="st1" d="M37.8,290c-2.9,3.7,1.4,8,5.1,5.1C45.8,291.4,41.5,287.1,37.8,290z"/>
	</g>
	<g>
		<g>
			<path class="st1" d="M332.8,480.8v-62.4c0-0.8,0.7-1.5,1.5-1.5c11,0,80.6,0,91.6,0c0.8,0,1.5,0.7,1.5,1.5v62.4H332.8z"/>
		</g>
	</g>
	<g>
		<g>
			<path class="st0" d="M327.6,478.9h44.2l0,0c0,0.8,0.7,0.8,1.5,0.8h13.6c0.8,0,1.5,0,1.5-0.8l0,0h44.1c0.2,0,0.4,0.2,0.4,0.4v4
				c0,0.2-0.2,0.4-0.4,0.4H327.7c-0.2,0-0.4-0.2-0.4-0.4v-4C327.2,479,327.4,478.9,327.6,478.9z"/>
		</g>
	</g>
	<g>
		<g>
			<path class="st0" d="M208.9,462.3h-81.1c-6.6,0-12-5.4-12-12v-1.7c0-6.6,5.4-12,12-12h81.1c6.6,0,12,5.4,12,12v1.7
				C220.9,456.9,215.5,462.3,208.9,462.3z"/>
			<circle class="st1" cx="208.2" cy="449.6" r="4.5"/>
			<circle class="st1" cx="194.8" cy="449.6" r="4.5"/>
			<circle class="st1" cx="181.3" cy="449.6" r="4.5"/>
		</g>
		<g>
			<path class="st2" d="M208.9,436.6h-81.1c-6.6,0-12-5.4-12-12v-1.7c0-6.6,5.4-12,12-12h81.1c6.6,0,12,5.4,12,12v1.7
				C220.9,431.3,215.5,436.6,208.9,436.6z"/>
			<circle class="st1" cx="208.2" cy="424" r="4.5"/>
			<circle class="st1" cx="194.8" cy="424" r="4.5"/>
			<circle class="st1" cx="181.3" cy="424" r="4.5"/>
		</g>
		<g>
			<path class="st2" d="M208.9,488h-81.1c-6.6,0-12-5.4-12-12v-1.7c0-6.6,5.4-12,12-12h81.1c6.6,0,12,5.4,12,12v1.7
				C220.9,482.6,215.5,488,208.9,488z"/>
			<circle class="st1" cx="208.2" cy="475.4" r="4.5"/>
			<circle class="st1" cx="194.8" cy="475.4" r="4.5"/>
			<circle class="st1" cx="181.3" cy="475.4" r="4.5"/>
		</g>
	</g>
	<path class="st3" d="M382.1,411.1c7.6,0,16,0,23.4,0l84.7-115.5h-38.8c-0.7,0-1.3-0.1-1.9-0.2l-67.4,37.3V411.1z"/>
	<path class="st3" d="M226.8,418.7v13.1c0,1.7-0.4,3.4-1.2,4.8c0.7,1.5,1.2,3.1,1.2,4.8v6.2h100.2v-26.2l-50.5-30.2L226.8,418.7z"/>
	<path class="st1" d="M226.8,449.6L226.8,449.6c0,1.1,0.9,2,2,2h96.1c1.1,0,2-0.9,2-2l0,0c0-1.1-0.9-2-2-2h-96.1
		C227.7,447.6,226.8,448.5,226.8,449.6z"/>
	<path class="st1" d="M409.4,411.1c0.1,0,0.1,0,0.2,0c0.6,0,1.2-0.3,1.6-0.8l81.8-111.5c1-1.3,0-3.1-1.6-3.1h-0.2
		c-0.6,0-1.2,0.3-1.6,0.8l-81.8,111.5C406.8,409.2,407.8,411.1,409.4,411.1z"/>
	<path class="st1" d="M72.2,302.7C72.2,302.8,72.2,302.8,72.2,302.7c-0.4,0.7-0.4,1.5,0,2.2l63.1,99.2c0.4,0.6,1,0.9,1.6,0.9h0.2
		c1.5,0,2.5-1.7,1.6-3l-63.2-99.4C74.8,301.4,73,301.5,72.2,302.7z"/>
	<path class="st1" d="M138.6,97.4h-0.1c-0.7,0-1.3,0.3-1.7,0.9l-64.3,99.5c-0.4,0.6-0.4,1.4-0.1,2c0,0,0,0,0,0
		c0.7,1.3,2.6,1.5,3.4,0.2l64.4-99.7C141.1,99.1,140.1,97.4,138.6,97.4z"/>
	<g>
		<g>
			<path class="st0" d="M208.9,65.8h-81.1c-6.6,0-12-5.4-12-12v-1.7c0-6.6,5.4-12,12-12h81.1c6.6,0,12,5.4,12,12v1.7
				C221,60.4,215.6,65.8,208.9,65.8z"/>
			
				<ellipse transform="matrix(0.7071 -0.7071 0.7071 0.7071 23.4376 162.8299)" class="st1" cx="208.3" cy="53.1" rx="4.5" ry="4.5"/>
			
				<ellipse transform="matrix(0.1602 -0.9871 0.9871 0.1602 111.1743 236.9162)" class="st1" cx="194.8" cy="53.1" rx="4.5" ry="4.5"/>
			
				<ellipse transform="matrix(0.1602 -0.9871 0.9871 0.1602 99.8755 223.636)" class="st1" cx="181.4" cy="53.1" rx="4.5" ry="4.5"/>
		</g>
		<g>
			<path class="st2" d="M208.9,40.1h-81.1c-6.6,0-12-5.4-12-12v-1.7c0-6.6,5.4-12,12-12h81.1c6.6,0,12,5.4,12,12v1.7
				C221,34.8,215.6,40.1,208.9,40.1z"/>
			
				<ellipse transform="matrix(0.2298 -0.9732 0.9732 0.2298 133.6595 223.8795)" class="st1" cx="208.3" cy="27.5" rx="4.5" ry="4.5"/>
			<ellipse transform="matrix(0.9239 -0.3827 0.3827 0.9239 4.3071 76.6468)" class="st1" cx="194.8" cy="27.5" rx="4.5" ry="4.5"/>
			<ellipse transform="matrix(0.9239 -0.3827 0.3827 0.9239 3.283 71.4982)" class="st1" cx="181.4" cy="27.5" rx="4.5" ry="4.5"/>
		</g>
		<g>
			<path class="st2" d="M208.9,91.5h-81.1c-6.6,0-12-5.4-12-12v-1.7c0-6.6,5.4-12,12-12h81.1c6.6,0,12,5.4,12,12v1.7
				C221,86.1,215.6,91.5,208.9,91.5z"/>
			<circle class="st1" cx="208.3" cy="78.9" r="4.5"/>
			<circle class="st1" cx="194.8" cy="78.9" r="4.5"/>
			<circle class="st1" cx="181.4" cy="78.9" r="4.5"/>
		</g>
	</g>
	<g>
		<path class="st0" d="M539.7,264h-81.1c-6.6,0-12-5.4-12-12v-1.7c0-6.6,5.4-12,12-12h81.1c6.6,0,12,5.4,12,12v1.7
			C551.7,258.6,546.3,264,539.7,264z"/>
		
			<ellipse transform="matrix(0.1602 -0.9871 0.9871 0.1602 204.5568 743.1426)" class="st1" cx="539" cy="251.4" rx="4.5" ry="4.5"/>
		
			<ellipse transform="matrix(0.1602 -0.9871 0.9871 0.1602 193.258 729.8624)" class="st1" cx="525.6" cy="251.4" rx="4.5" ry="4.5"/>
		
			<ellipse transform="matrix(0.1602 -0.9871 0.9871 0.1602 181.9591 716.5822)" class="st1" cx="512.1" cy="251.4" rx="4.5" ry="4.5"/>
	</g>
	<g>
		<path class="st2" d="M539.7,238.4h-81.1c-6.6,0-12-5.4-12-12v-1.7c0-6.6,5.4-12,12-12h81.1c6.6,0,12,5.4,12,12v1.7
			C551.7,233,546.3,238.4,539.7,238.4z"/>
		<ellipse transform="matrix(0.9239 -0.3827 0.3827 0.9239 -45.354 223.4525)" class="st1" cx="539" cy="225.7" rx="4.5" ry="4.5"/>
		
			<ellipse transform="matrix(0.9239 -0.3827 0.3827 0.9239 -46.3781 218.3039)" class="st1" cx="525.6" cy="225.7" rx="4.5" ry="4.5"/>
		
			<ellipse transform="matrix(0.9239 -0.3827 0.3827 0.9239 -47.4022 213.1553)" class="st1" cx="512.1" cy="225.7" rx="4.5" ry="4.5"/>
	</g>
	<g>
		<path class="st2" d="M539.7,289.8h-81.1c-6.6,0-12-5.4-12-12V276c0-6.6,5.4-12,12-12h81.1c6.6,0,12,5.4,12,12v1.7
			C551.7,284.4,546.3,289.8,539.7,289.8z"/>
		<circle class="st1" cx="539" cy="277.1" r="4.5"/>
		<circle class="st1" cx="525.6" cy="277.1" r="4.5"/>
		<circle class="st1" cx="512.1" cy="277.1" r="4.5"/>
	</g>
	<polygon class="st3" points="366.1,89.2 362.8,89.2 334,142.8 378,167.3 378,103.6 366.1,103.6 	"/>
	<polygon class="st3" points="322.6,89.2 322.6,88.8 280.8,113.2 330.4,140.8 358.2,89.2 354,89.2 	"/>
	<path class="st1" d="M491.3,206.8h0.2c1.6,0,2.6-1.8,1.6-3.1L409.7,90c-0.4-0.5-1-0.8-1.6-0.8H408c-1.6,0-2.6,1.8-1.6,3.1
		L489.7,206C490.1,206.5,490.6,206.8,491.3,206.8z"/>
	<path class="st1" d="M378,105.3v59.1c0,1.3-1.4,2.1-2.5,1.5l-40-22.3c-0.8-0.5-1.1-1.5-0.7-2.3l26.7-49.6c0.6-1.1-0.2-2.5-1.5-2.5
		h-0.8c-0.6,0-1.2,0.3-1.5,0.9l-26.5,49.2c-0.4,0.8-1.5,1.1-2.3,0.7l-45.6-25.3c-1.1-0.6-1.2-2.3,0-2.9l38.4-22.4
		c0.5-0.3,0.8-0.9,0.8-1.5V87c0-1.3-1.4-2.1-2.5-1.5l-42.6,24.9c-0.5,0.3-1.2,0.3-1.7,0l-46.5-25.9c-1.1-0.6-2.5,0.2-2.5,1.5v0.6
		c0,0.1,0,0.1,0,0.2c0,0.6,0.3,1.2,0.9,1.5l42.3,23.5c1.1,0.6,1.2,2.3,0,2.9l-49.1,28.6c-0.8,0.5-1.9,0.2-2.4-0.7l-23.7-44.5
		c-0.3-0.6-0.9-0.9-1.5-0.9h-0.8c-1.3,0-2.1,1.4-1.5,2.5l24,45.1c0.4,0.8,0.1,1.8-0.6,2.3l-41.5,24.2c-1.1,0.7-2.5-0.2-2.5-1.5V99.1
		c0-0.9-0.8-1.7-1.7-1.7H168c-0.9,0-1.7,0.8-1.7,1.7v75.3c0,0.6-0.3,1.2-0.8,1.5l-90.6,52.9c-0.5,0.3-0.8,0.9-0.8,1.5v0.8
		c0,1.3,1.4,2.1,2.5,1.5l87.2-50.9c1.1-0.7,2.5,0.2,2.5,1.5v64.5c0,0.9-0.8,1.7-1.7,1.7l-88.9,0c-0.9,0-1.7,0.8-1.7,1.7v0.7
		c0,0.9,0.8,1.7,1.7,1.7l88.9,0c0.9,0,1.7,0.8,1.7,1.7v62.8c0,1.3-1.4,2.1-2.6,1.5l-87.1-52c-1.1-0.7-2.6,0.1-2.6,1.5v0.8
		c0,0.6,0.3,1.1,0.8,1.5l90.6,54.1c0.5,0.3,0.8,0.9,0.8,1.5v77c0,0.9,0.8,1.7,1.7,1.7h0.7c0.9,0,1.7-0.8,1.7-1.7v-72.5
		c0-1.3,1.4-2.1,2.6-1.5l41.1,24.5c0.8,0.5,1.1,1.5,0.6,2.3l-24.9,46.4c-0.6,1.1,0.2,2.5,1.5,2.5h0.8c0.6,0,1.2-0.3,1.5-0.9
		l24.6-45.8c0.5-0.9,1.5-1.1,2.4-0.7l49.4,29.5c1.1,0.7,1.1,2.3,0,2.9l-42.2,23.3c-0.6,0.3-0.9,0.9-0.9,1.6c0,0.2,0,0.4,0,0.7l0,0
		c0,1.3,1.4,2.1,2.5,1.5l46.3-25.6c0.5-0.3,1.2-0.3,1.7,0l47.1,28.2c1.1,0.7,2.6-0.1,2.6-1.5v0c0-0.2,0-0.4,0-0.6
		c0.1-0.6-0.3-1.3-0.8-1.6l-43.1-25.7c-1.1-0.7-1.1-2.3,0-2.9l45.8-25.3c0.8-0.5,1.9-0.1,2.3,0.7l25.2,47.3c0.3,0.6,0.9,0.9,1.5,0.9
		c0.3,0,0.5,0,0.8,0c1.3,0,2.1-1.4,1.5-2.5l-25.4-47.8c-0.4-0.8-0.1-1.8,0.7-2.3l40.1-22.2c1.1-0.6,2.5,0.2,2.5,1.5v71.5
		c0,0.9,0.8,1.7,1.7,1.7h0.3h0.3c0.9,0,1.7-0.8,1.7-1.7v-75.6c0-0.6,0.3-1.2,0.9-1.5l63.3-35c1.2-0.6,1.2-2.3,0-3
		c-0.2-0.1-0.4-0.2-0.5-0.3c-0.5-0.3-1.2-0.4-1.8-0.1l-59.3,32.8c-1.1,0.6-2.5-0.2-2.5-1.5V255c0-0.9,0.8-1.7,1.7-1.7l55.2,0
		c0.9,0,1.7-0.8,1.7-1.7V251c0-0.9-0.8-1.7-1.7-1.7l-55.2,0c-0.9,0-1.7-0.8-1.7-1.7v-70.5c0-1.3,1.4-2.1,2.5-1.5l59.3,33
		c0.5,0.3,1.2,0.3,1.7-0.1c0.2-0.1,0.4-0.2,0.6-0.3c1.2-0.7,1.2-2.3,0-3L382.9,170c-0.5-0.3-0.9-0.9-0.9-1.5v-63.3
		c0-0.9-0.8-1.7-1.7-1.7h-0.7C378.8,103.6,378,104.4,378,105.3z M277.5,116.1l49.5,27.5c0.8,0.5,1.1,1.5,0.7,2.3l-52.5,97.6
		c-0.6,1.2-2.4,1.2-3,0l-50.2-94.1c-0.4-0.8-0.1-1.8,0.6-2.3l53.1-31C276.4,115.8,277,115.8,277.5,116.1z M171.2,177.2l45.1-26.3
		c0.8-0.5,1.9-0.2,2.4,0.7l50.7,95.2c0.6,1.1-0.2,2.5-1.5,2.5l-95.8,0c-0.9,0-1.7-0.8-1.7-1.7v-68.8
		C170.4,178,170.7,177.5,171.2,177.2z M215.8,350.3l-44.6-26.6c-0.5-0.3-0.8-0.9-0.8-1.5v-67.2c0-0.9,0.8-1.7,1.7-1.7l95.1,0
		c1.3,0,2.1,1.4,1.5,2.5l-50.5,93.8C217.7,350.5,216.6,350.7,215.8,350.3z M275.6,386l-53.4-31.9c-0.8-0.5-1.1-1.5-0.6-2.3
		l50.6-94.1c0.6-1.2,2.4-1.2,3,0l52.5,98.5c0.4,0.8,0.1,1.8-0.7,2.3L277.3,386C276.8,386.3,276.2,386.3,275.6,386z M377.1,330.8
		l-43.6,24.1c-0.8,0.5-1.9,0.1-2.3-0.7l-52.5-98.5c-0.6-1.1,0.2-2.5,1.5-2.5l96,0c0.9,0,1.7,0.8,1.7,1.7v74.3
		C378,329.9,377.7,330.5,377.1,330.8z M376.3,249.2l-96.7,0c-1.3,0-2.1-1.4-1.5-2.5l53.1-98.8c0.4-0.8,1.5-1.1,2.3-0.7l43.6,24.2
		c0.5,0.3,0.9,0.9,0.9,1.5v74.6C378,248.5,377.2,249.2,376.3,249.2z"/>
	<path class="st1" d="M226.8,52.9V53c0,1.1,0.9,2,2,2h91.9c1.1,0,2-0.9,2-2v-0.1c0-1.1-0.9-2-2-2h-91.9
		C227.7,50.9,226.8,51.8,226.8,52.9z"/>
</g>
</svg>
