<?xml version="1.0" encoding="utf-8"?>
<!-- Generator: Adobe Illustrator 24.0.1, SVG Export Plug-In . SVG Version: 6.00 Build 0)  -->
<svg version="1.1" id="Layer_1" xmlns="http://www.w3.org/2000/svg" xmlns:xlink="http://www.w3.org/1999/xlink" x="0px" y="0px"
	 viewBox="0 0 50 32" style="enable-background:new 0 0 50 32;" xml:space="preserve">
<style type="text/css">
	.st0{fill:url(#SVGID_1_);}
	.st1{fill:#FFFFFF;}
</style>
<g>
	
		<radialGradient id="SVGID_1_" cx="-134.6554" cy="299.0205" r="30.4724" gradientTransform="matrix(1 0 0 -1 149.0522 304.4189)" gradientUnits="userSpaceOnUse">
		<stop  offset="0" style="stop-color:#9DD5F6"/>
		<stop  offset="7.110000e-02" style="stop-color:#98D3F5"/>
		<stop  offset="0.1575" style="stop-color:#89CEF3"/>
		<stop  offset="0.2516" style="stop-color:#70C6EF"/>
		<stop  offset="0.3514" style="stop-color:#4EBBEA"/>
		<stop  offset="0.4546" style="stop-color:#23ADE3"/>
		<stop  offset="0.5" style="stop-color:#0DA6E0"/>
		<stop  offset="1" style="stop-color:#2E77BC"/>
	</radialGradient>
	<path class="st0" d="M41.1-0.3H8.7v32.6h32.5V21.5c0.1-0.2,0.2-0.4,0.2-0.7c0-0.3-0.1-0.5-0.2-0.7"/>
	<path class="st1" d="M11.6,13.8L11,12.3l-0.6,1.5 M25.4,13.2c-0.1,0.1-0.3,0.1-0.5,0.1h-1.1v-0.8h1.1c0.2,0,0.3,0,0.4,0.1
		c0.1,0.1,0.2,0.2,0.2,0.3C25.5,13,25.5,13.1,25.4,13.2z M33.3,13.8l-0.6-1.5L32,13.8H33.3z M18.5,15.5h-0.9l0-3l-1.3,3h-0.8l-1.3-3
		v3h-1.9l-0.4-0.9H10l-0.4,0.9h-1l1.6-3.8h1.4l1.6,3.6v-3.6h1.5l1.2,2.6l1.1-2.6h1.5L18.5,15.5L18.5,15.5z M22.3,15.5h-3v-3.8h3v0.8
		h-2.1v0.7h2.1v0.8h-2.1v0.8h2.1V15.5z M26.6,12.7c0,0.6-0.4,0.9-0.6,1c0.2,0.1,0.4,0.2,0.5,0.3c0.1,0.2,0.2,0.4,0.2,0.7v0.8h-0.9
		l0-0.5c0-0.2,0-0.6-0.1-0.7c-0.1-0.1-0.3-0.2-0.7-0.2h-1v1.4h-0.9v-3.8H25c0.5,0,0.8,0,1.1,0.2C26.4,12,26.6,12.2,26.6,12.7z
		 M28,15.5h-0.9v-3.8H28V15.5z M38.8,15.5h-1.3l-1.7-2.9v2.9h-1.9l-0.4-0.9h-1.9l-0.3,0.9h-1.1c-0.4,0-1-0.1-1.3-0.4
		c-0.3-0.3-0.5-0.8-0.5-1.5c0-0.6,0.1-1.1,0.5-1.5c0.3-0.3,0.8-0.4,1.4-0.4h0.9v0.8h-0.9c-0.3,0-0.5,0-0.7,0.2
		c-0.2,0.2-0.3,0.5-0.3,0.9c0,0.4,0.1,0.7,0.3,0.9c0.1,0.2,0.4,0.2,0.6,0.2h0.4l1.3-3h1.4l1.5,3.6v-3.6h1.4l1.6,2.7v-2.7h0.9V15.5
		L38.8,15.5z M8.7,16.2h1.6l0.4-0.8h0.8l0.4,0.8h3.1v-0.6l0.3,0.7h1.6l0.3-0.7v0.7h7.6l0-1.4h0.1c0.1,0,0.1,0,0.1,0.2v1.2h3.9v-0.3
		c0.3,0.2,0.8,0.3,1.5,0.3h1.7l0.4-0.8H33l0.3,0.8h3.2v-0.8l0.5,0.8h2.6v-5.3h-2.5v0.6l-0.4-0.6h-2.6v0.6l-0.3-0.6h-3.5
		c-0.6,0-1.1,0.1-1.5,0.3v-0.3h-2.4v0.3c-0.3-0.2-0.6-0.3-1-0.3h-8.9l-0.6,1.4l-0.6-1.4h-2.8v0.6l-0.3-0.6H9.8l-1.1,2.5L8.7,16.2
		L8.7,16.2z"/>
	<path class="st1" d="M41.1,19h-1.7c-0.2,0-0.3,0-0.4,0.1C39,19.2,39,19.2,39,19.4c0,0.1,0.1,0.2,0.2,0.3c0.1,0,0.2,0,0.4,0l0.5,0
		c0.5,0,0.8,0.1,1,0.3c0,0,0.1,0.1,0.1,0.1 M41.1,21.5c-0.2,0.3-0.7,0.5-1.2,0.5h-1.8v-0.8h1.8c0.2,0,0.3,0,0.4-0.1
		c0.1-0.1,0.1-0.1,0.1-0.2c0-0.1,0-0.2-0.1-0.3c-0.1-0.1-0.2-0.1-0.3-0.1c-0.9,0-1.9,0-1.9-1.2c0-0.6,0.4-1.1,1.3-1.1h1.8v-0.8h-1.7
		c-0.5,0-0.9,0.1-1.1,0.3v-0.3h-2.5c-0.4,0-0.9,0.1-1.1,0.3v-0.3h-4.5v0.3c-0.4-0.3-1-0.3-1.2-0.3h-2.9v0.3
		c-0.3-0.3-0.9-0.3-1.3-0.3h-3.3l-0.8,0.8L20,17.4h-4.9v5.3H20l0.8-0.8l0.7,0.8l3,0v-1.3h0.3c0.4,0,0.9,0,1.3-0.2v1.4h2.5v-1.4h0.1
		c0.2,0,0.2,0,0.2,0.2v1.2h7.5c0.5,0,1-0.1,1.2-0.3v0.3h2.4c0.5,0,1-0.1,1.3-0.2V21.5L41.1,21.5z M37.5,20c0.2,0.2,0.3,0.4,0.3,0.8
		c0,0.8-0.5,1.2-1.4,1.2h-1.8v-0.8h1.8c0.2,0,0.3,0,0.4-0.1c0.1-0.1,0.1-0.1,0.1-0.2c0-0.1,0-0.2-0.1-0.3c-0.1-0.1-0.2-0.1-0.3-0.1
		c-0.9,0-1.9,0-1.9-1.2c0-0.6,0.3-1.1,1.3-1.1h1.8V19h-1.7c-0.2,0-0.3,0-0.4,0.1c-0.1,0.1-0.1,0.2-0.1,0.3c0,0.1,0.1,0.2,0.2,0.3
		c0.1,0,0.2,0,0.4,0l0.5,0C37,19.7,37.3,19.8,37.5,20z M29.3,19.8c-0.1,0.1-0.3,0.1-0.5,0.1h-1.1V19h1.1c0.2,0,0.3,0,0.4,0.1
		c0.1,0.1,0.2,0.2,0.2,0.3C29.5,19.6,29.4,19.7,29.3,19.8z M29.8,20.3c0.2,0.1,0.4,0.2,0.4,0.3c0.1,0.2,0.1,0.4,0.2,0.7V22h-0.9
		v-0.5c0-0.2,0-0.6-0.1-0.7c-0.1-0.1-0.3-0.2-0.7-0.2h-1V22h-0.9v-3.8h2.1c0.5,0,0.8,0,1.1,0.2c0.3,0.2,0.5,0.4,0.5,0.8
		C30.5,19.8,30.1,20.2,29.8,20.3z M31,18.2h3V19h-2.1v0.7H34v0.8h-2.1v0.8l2.1,0V22h-3V18.2z M24.8,20h-1.2v-1h1.2
		c0.3,0,0.6,0.1,0.6,0.5C25.4,19.8,25.2,20,24.8,20z M22.7,21.7l-1.4-1.6l1.4-1.5V21.7z M19.1,21.2h-2.2v-0.8h2v-0.8h-2V19h2.3
		l1,1.1L19.1,21.2z M26.4,19.5c0,1.1-0.8,1.3-1.6,1.3h-1.1V22h-1.8l-1.1-1.3L19.6,22h-3.6v-3.8h3.7l1.1,1.3l1.2-1.3h2.9
		C25.5,18.2,26.4,18.4,26.4,19.5z"/>
</g>
</svg>
