<?xml version="1.0" encoding="utf-8"?>
<!-- Generator: Adobe Illustrator 24.0.1, SVG Export Plug-In . SVG Version: 6.00 Build 0)  -->
<svg version="1.1" id="Layer_1" xmlns="http://www.w3.org/2000/svg" xmlns:xlink="http://www.w3.org/1999/xlink" x="0px" y="0px"
	 viewBox="0 0 50 32" style="enable-background:new 0 0 50 32;" xml:space="preserve">
<style type="text/css">
	.st0{fill:none;}
	.st1{fill:#17155B;}
	.st2{fill:#F15A24;}
	.st3{fill:#F7D9B0;}
</style>
<rect x="-45.9" y="-54.9" class="st0" width="141.7" height="141.7"/>
<g>
	<g>
		<path class="st1" d="M9.5,23.2c0,0.1,0,0.2,0,0.3c0,0.1-0.1,0.1-0.1,0.2c-0.1,0.1-0.1,0.1-0.2,0.1c-0.1,0-0.2,0-0.3,0H8.6v-1.3H9
			c0.1,0,0.2,0,0.3,0c0.1,0,0.1,0.1,0.2,0.1c0,0.1,0.1,0.1,0.1,0.2C9.5,23,9.5,23.1,9.5,23.2z M9.3,23.2c0-0.1,0-0.1,0-0.2
			c0-0.1,0-0.1-0.1-0.1c0,0-0.1-0.1-0.1-0.1c0,0-0.1,0-0.2,0H8.8v0.9h0.1c0.1,0,0.2,0,0.3-0.1C9.3,23.5,9.3,23.4,9.3,23.2z"/>
		<path class="st1" d="M9.7,22.8v-0.2h0.8v0.2h-0.3v0.9h0.3v0.2H9.7v-0.2H10v-0.9H9.7z"/>
		<path class="st1" d="M11.3,23.3v-0.2h0.5v0.7c-0.1,0-0.1,0-0.2,0.1c-0.1,0-0.1,0-0.2,0c-0.1,0-0.2,0-0.2,0c-0.1,0-0.1-0.1-0.2-0.1
			c0-0.1-0.1-0.1-0.1-0.2c0-0.1,0-0.2,0-0.3c0-0.1,0-0.2,0-0.3c0-0.1,0.1-0.2,0.1-0.2s0.1-0.1,0.2-0.1c0.1,0,0.2,0,0.3,0
			c0.1,0,0.1,0,0.2,0c0.1,0,0.1,0,0.2,0v0.2c0,0-0.1,0-0.2-0.1c-0.1,0-0.1,0-0.2,0c-0.1,0-0.1,0-0.2,0c0,0-0.1,0.1-0.1,0.1
			c0,0-0.1,0.1-0.1,0.1c0,0.1,0,0.1,0,0.2c0,0.1,0,0.1,0,0.2c0,0.1,0,0.1,0.1,0.1c0,0,0.1,0.1,0.1,0.1c0,0,0.1,0,0.2,0c0,0,0,0,0,0
			s0,0,0,0c0,0,0,0,0,0c0,0,0,0,0,0v-0.3H11.3z"/>
		<path class="st1" d="M11.9,22.8v-0.2h0.8v0.2h-0.3v0.9h0.3v0.2h-0.8v-0.2h0.3v-0.9H11.9z"/>
		<path class="st1" d="M13.6,22.8v1.1h-0.2v-1.1H13v-0.2h0.9v0.2H13.6z"/>
		<path class="st1" d="M14.8,23.9l-0.1-0.3h-0.4l-0.1,0.3H14l0.4-1.3h0.3l0.4,1.3H14.8z M14.5,22.8l-0.2,0.6h0.3L14.5,22.8z"/>
		<path class="st1" d="M15.3,23.9v-1.3h0.2v1.1h0.5v0.2H15.3z"/>
		<path class="st1" d="M18,22.8v1.1h-0.2v-1.1h-0.3v-0.2h0.9v0.2H18z"/>
		<path class="st1" d="M19.2,23.9L19,23.4c0,0,0-0.1-0.1-0.1c0,0-0.1,0-0.1,0h0v0.5h-0.2v-1.3h0.4c0.1,0,0.1,0,0.2,0
			c0.1,0,0.1,0,0.1,0.1c0,0,0.1,0.1,0.1,0.1c0,0,0,0.1,0,0.2c0,0,0,0.1,0,0.1c0,0,0,0.1-0.1,0.1c0,0-0.1,0-0.1,0.1c0,0-0.1,0-0.1,0
			c0,0,0.1,0,0.1,0.1c0,0,0.1,0.1,0.1,0.1l0.2,0.4H19.2z M19.1,23c0-0.1,0-0.1-0.1-0.1c0,0-0.1,0-0.2,0h-0.1v0.4h0.1
			c0,0,0.1,0,0.1,0c0,0,0.1,0,0.1,0C19.1,23.1,19.1,23.1,19.1,23C19.1,23,19.1,23,19.1,23z"/>
		<path class="st1" d="M20.3,23.9l-0.1-0.3h-0.4l-0.1,0.3h-0.2l0.4-1.3h0.3l0.4,1.3H20.3z M20,22.8l-0.2,0.6h0.3L20,22.8z"/>
		<path class="st1" d="M21.3,23.9L21,23.1l-0.1-0.2v0.5v0.4h-0.2v-1.3H21l0.3,0.8l0.1,0.1v-0.6v-0.4h0.2v1.3H21.3z"/>
		<path class="st1" d="M22.7,23.5c0,0.1,0,0.1,0,0.2c0,0.1-0.1,0.1-0.1,0.1c0,0-0.1,0.1-0.2,0.1c-0.1,0-0.1,0-0.2,0
			c-0.1,0-0.1,0-0.2,0c-0.1,0-0.1,0-0.2,0v-0.2c0,0,0.1,0,0.1,0c0,0,0.1,0,0.1,0c0,0,0.1,0,0.1,0c0,0,0.1,0,0.1,0c0,0,0.1,0,0.1,0
			c0,0,0.1,0,0.1,0c0,0,0,0,0,0s0,0,0-0.1c0,0,0-0.1,0-0.1s0,0-0.1-0.1c0,0-0.1,0-0.1,0c0,0-0.1,0-0.1,0c0,0-0.1,0-0.1-0.1
			c0,0-0.1,0-0.1-0.1c0,0-0.1-0.1-0.1-0.1c0,0,0-0.1,0-0.1c0-0.1,0-0.1,0-0.1c0,0,0-0.1,0.1-0.1c0,0,0.1-0.1,0.2-0.1
			c0.1,0,0.1,0,0.2,0c0,0,0.1,0,0.1,0c0,0,0.1,0,0.1,0c0,0,0.1,0,0.1,0c0,0,0,0,0.1,0v0.2c0,0,0,0-0.1,0c0,0-0.1,0-0.1,0
			c0,0-0.1,0-0.1,0c0,0-0.1,0-0.1,0c0,0-0.1,0-0.1,0c0,0-0.1,0-0.1,0c0,0,0,0,0,0c0,0,0,0,0,0.1c0,0,0,0,0,0.1c0,0,0,0,0.1,0.1
			c0,0,0.1,0,0.1,0c0,0,0.1,0,0.1,0c0,0,0.1,0,0.1,0.1c0,0,0.1,0,0.1,0.1c0,0,0.1,0.1,0.1,0.1S22.7,23.4,22.7,23.5z"/>
		<path class="st1" d="M23.2,22.8v0.4h0.5v0.2h-0.5v0.5H23v-1.3h0.8v0.2H23.2z"/>
		<path class="st1" d="M25,23.2c0,0.1,0,0.2,0,0.3c0,0.1-0.1,0.2-0.1,0.2c0,0.1-0.1,0.1-0.2,0.1c-0.1,0-0.1,0-0.2,0
			c-0.2,0-0.3-0.1-0.4-0.2c-0.1-0.1-0.1-0.3-0.1-0.5c0-0.1,0-0.2,0-0.3c0-0.1,0.1-0.2,0.1-0.2c0-0.1,0.1-0.1,0.2-0.1
			c0.1,0,0.1,0,0.2,0c0.2,0,0.3,0.1,0.4,0.2C24.9,22.8,25,23,25,23.2z M24.7,23.2c0-0.2,0-0.3-0.1-0.3c0-0.1-0.1-0.1-0.2-0.1
			c0,0-0.1,0-0.1,0c0,0-0.1,0-0.1,0.1s0,0.1,0,0.1c0,0.1,0,0.1,0,0.2c0,0.2,0,0.3,0.1,0.3c0,0.1,0.1,0.1,0.2,0.1c0,0,0.1,0,0.1,0
			c0,0,0.1,0,0.1-0.1c0,0,0-0.1,0-0.1C24.7,23.4,24.7,23.3,24.7,23.2z"/>
		<path class="st1" d="M25.8,23.9l-0.2-0.4c0,0,0-0.1-0.1-0.1c0,0-0.1,0-0.1,0h0v0.5h-0.2v-1.3h0.4c0.1,0,0.1,0,0.2,0
			c0.1,0,0.1,0,0.1,0.1c0,0,0.1,0.1,0.1,0.1c0,0,0,0.1,0,0.2c0,0,0,0.1,0,0.1c0,0,0,0.1-0.1,0.1c0,0-0.1,0-0.1,0.1c0,0-0.1,0-0.1,0
			c0,0,0.1,0,0.1,0.1c0,0,0.1,0.1,0.1,0.1l0.2,0.4H25.8z M25.7,23c0-0.1,0-0.1-0.1-0.1c0,0-0.1,0-0.2,0h-0.1v0.4h0.1
			c0,0,0.1,0,0.1,0c0,0,0.1,0,0.1,0C25.7,23.1,25.7,23.1,25.7,23C25.7,23,25.7,23,25.7,23z"/>
		<path class="st1" d="M26.9,23.9l0-0.7l0-0.3L26.9,23l-0.1,0.4h-0.2L26.4,23l-0.1-0.2l0,0.3l0,0.7h-0.2l0.1-1.3h0.3l0.1,0.4
			l0.1,0.2l0.1-0.2l0.1-0.4h0.3l0.1,1.3H26.9z"/>
		<path class="st1" d="M28,23.9L28,23.6h-0.4l-0.1,0.3h-0.2l0.4-1.3h0.3l0.4,1.3H28z M27.7,22.8l-0.2,0.6h0.3L27.7,22.8z"/>
		<path class="st1" d="M29,22.8v1.1h-0.2v-1.1h-0.3v-0.2h0.9v0.2H29z"/>
		<path class="st1" d="M29.5,22.8v-0.2h0.8v0.2h-0.3v0.9h0.3v0.2h-0.8v-0.2h0.3v-0.9H29.5z"/>
		<path class="st1" d="M31.6,23.2c0,0.1,0,0.2,0,0.3c0,0.1-0.1,0.2-0.1,0.2c0,0.1-0.1,0.1-0.2,0.1c-0.1,0-0.1,0-0.2,0
			c-0.2,0-0.3-0.1-0.4-0.2c-0.1-0.1-0.1-0.3-0.1-0.5c0-0.1,0-0.2,0-0.3c0-0.1,0.1-0.2,0.1-0.2c0-0.1,0.1-0.1,0.2-0.1
			c0.1,0,0.1,0,0.2,0c0.2,0,0.3,0.1,0.4,0.2C31.5,22.8,31.6,23,31.6,23.2z M31.3,23.2c0-0.2,0-0.3-0.1-0.3c0-0.1-0.1-0.1-0.2-0.1
			c0,0-0.1,0-0.1,0c0,0-0.1,0-0.1,0.1s0,0.1,0,0.1c0,0.1,0,0.1,0,0.2c0,0.2,0,0.3,0.1,0.3c0,0.1,0.1,0.1,0.2,0.1c0,0,0.1,0,0.1,0
			c0,0,0.1,0,0.1-0.1c0,0,0-0.1,0-0.1C31.3,23.4,31.3,23.3,31.3,23.2z"/>
		<path class="st1" d="M32.3,23.9L32,23.1l-0.1-0.2v0.5v0.4h-0.2v-1.3H32l0.3,0.8l0.1,0.1v-0.6v-0.4h0.2v1.3H32.3z"/>
		<path class="st1" d="M34.8,23.5c0,0.1,0,0.1,0,0.2c0,0.1-0.1,0.1-0.1,0.1c0,0-0.1,0.1-0.2,0.1c-0.1,0-0.1,0-0.2,0
			c-0.1,0-0.1,0-0.2,0c-0.1,0-0.1,0-0.2,0v-0.2c0,0,0.1,0,0.1,0c0,0,0.1,0,0.1,0c0,0,0.1,0,0.1,0c0,0,0.1,0,0.1,0c0,0,0.1,0,0.1,0
			c0,0,0.1,0,0.1,0c0,0,0,0,0,0s0,0,0-0.1c0,0,0-0.1,0-0.1s0,0-0.1-0.1c0,0-0.1,0-0.1,0c0,0-0.1,0-0.1,0c0,0-0.1,0-0.1-0.1
			c0,0-0.1,0-0.1-0.1c0,0-0.1-0.1-0.1-0.1c0,0,0-0.1,0-0.1c0-0.1,0-0.1,0-0.1c0,0,0-0.1,0.1-0.1c0,0,0.1-0.1,0.2-0.1
			c0.1,0,0.1,0,0.2,0c0,0,0.1,0,0.1,0c0,0,0.1,0,0.1,0c0,0,0.1,0,0.1,0c0,0,0,0,0.1,0v0.2c0,0,0,0-0.1,0c0,0-0.1,0-0.1,0
			c0,0-0.1,0-0.1,0c0,0-0.1,0-0.1,0c0,0-0.1,0-0.1,0c0,0-0.1,0-0.1,0c0,0,0,0,0,0c0,0,0,0,0,0.1c0,0,0,0,0,0.1c0,0,0,0,0.1,0.1
			c0,0,0.1,0,0.1,0c0,0,0.1,0,0.1,0c0,0,0.1,0,0.1,0.1c0,0,0.1,0,0.1,0.1c0,0,0.1,0.1,0.1,0.1C34.8,23.4,34.8,23.4,34.8,23.5z"/>
		<path class="st1" d="M35.6,23.4v0.5h-0.2v-0.5l-0.4-0.8h0.3l0.2,0.4l0.1,0.2l0.1-0.2l0.2-0.4H36L35.6,23.4z"/>
		<path class="st1" d="M37,23.5c0,0.1,0,0.1,0,0.2c0,0.1-0.1,0.1-0.1,0.1c0,0-0.1,0.1-0.2,0.1c-0.1,0-0.1,0-0.2,0
			c-0.1,0-0.1,0-0.2,0c-0.1,0-0.1,0-0.2,0v-0.2c0,0,0.1,0,0.1,0c0,0,0.1,0,0.1,0c0,0,0.1,0,0.1,0c0,0,0.1,0,0.1,0c0,0,0.1,0,0.1,0
			c0,0,0.1,0,0.1,0c0,0,0,0,0,0c0,0,0,0,0-0.1c0,0,0-0.1,0-0.1s0,0-0.1-0.1c0,0-0.1,0-0.1,0c0,0-0.1,0-0.1,0c0,0-0.1,0-0.1-0.1
			c0,0-0.1,0-0.1-0.1c0,0-0.1-0.1-0.1-0.1c0,0,0-0.1,0-0.1c0-0.1,0-0.1,0-0.1c0,0,0-0.1,0.1-0.1c0,0,0.1-0.1,0.2-0.1
			c0.1,0,0.1,0,0.2,0c0,0,0.1,0,0.1,0c0,0,0.1,0,0.1,0c0,0,0.1,0,0.1,0c0,0,0,0,0.1,0v0.2c0,0,0,0-0.1,0c0,0-0.1,0-0.1,0
			c0,0-0.1,0-0.1,0c0,0-0.1,0-0.1,0c0,0-0.1,0-0.1,0c0,0-0.1,0-0.1,0c0,0,0,0,0,0c0,0,0,0,0,0.1c0,0,0,0,0,0.1c0,0,0,0,0.1,0.1
			c0,0,0.1,0,0.1,0c0,0,0.1,0,0.1,0c0,0,0.1,0,0.1,0.1c0,0,0.1,0,0.1,0.1s0.1,0.1,0.1,0.1S37,23.4,37,23.5z"/>
		<path class="st1" d="M37.8,22.8v1.1h-0.2v-1.1h-0.3v-0.2h0.9v0.2H37.8z"/>
		<path class="st1" d="M38.4,23.9v-1.3h0.8v0.2h-0.5v0.3h0.5v0.2h-0.5v0.4h0.5v0.2H38.4z"/>
		<path class="st1" d="M40.1,23.9l0-0.7l0-0.3L40,23l-0.1,0.4h-0.2L39.6,23l-0.1-0.2l0,0.3l0,0.7h-0.2l0.1-1.3h0.3l0.1,0.4l0.1,0.2
			l0.1-0.2l0.1-0.4h0.3l0.1,1.3H40.1z"/>
		<path class="st1" d="M41.4,23.5c0,0.1,0,0.1,0,0.2c0,0.1-0.1,0.1-0.1,0.1c0,0-0.1,0.1-0.2,0.1c-0.1,0-0.1,0-0.2,0
			c-0.1,0-0.1,0-0.2,0c-0.1,0-0.1,0-0.2,0v-0.2c0,0,0.1,0,0.1,0c0,0,0.1,0,0.1,0c0,0,0.1,0,0.1,0c0,0,0.1,0,0.1,0c0,0,0.1,0,0.1,0
			c0,0,0.1,0,0.1,0c0,0,0,0,0,0c0,0,0,0,0-0.1c0,0,0-0.1,0-0.1s0,0-0.1-0.1c0,0-0.1,0-0.1,0c0,0-0.1,0-0.1,0c0,0-0.1,0-0.1-0.1
			c0,0-0.1,0-0.1-0.1c0,0-0.1-0.1-0.1-0.1c0,0,0-0.1,0-0.1c0-0.1,0-0.1,0-0.1c0,0,0-0.1,0.1-0.1c0,0,0.1-0.1,0.2-0.1
			c0.1,0,0.1,0,0.2,0c0,0,0.1,0,0.1,0c0,0,0.1,0,0.1,0c0,0,0.1,0,0.1,0c0,0,0,0,0.1,0v0.2c0,0,0,0-0.1,0c0,0-0.1,0-0.1,0
			c0,0-0.1,0-0.1,0c0,0-0.1,0-0.1,0c0,0-0.1,0-0.1,0c0,0-0.1,0-0.1,0c0,0,0,0,0,0c0,0,0,0,0,0.1c0,0,0,0,0,0.1c0,0,0,0,0.1,0.1
			c0,0,0.1,0,0.1,0c0,0,0.1,0,0.1,0c0,0,0.1,0,0.1,0.1c0,0,0.1,0,0.1,0.1s0.1,0.1,0.1,0.1S41.4,23.4,41.4,23.5z"/>
	</g>
	<g>
		<g>
			<g>
				<g>
					<g>
						<path class="st2" d="M9.6,9h3.1c0.8,0,1.4,0.2,1.8,0.7c0.4,0.4,0.6,1.1,0.6,2l0,5.2c0,1.1-0.2,1.9-0.6,2.5
							c-0.4,0.6-1,0.8-1.9,0.8h-3V9z M12.3,18.3c0.4,0,0.6-0.2,0.6-0.6v-5.8c0-0.3,0-0.4-0.1-0.6c0-0.1-0.1-0.2-0.2-0.3
							c-0.1,0-0.3-0.1-0.5-0.1h-0.2v7.3H12.3z"/>
					</g>
				</g>
				<path class="st1" d="M17.1,11.6c-0.1,0.2-0.4,0.3-0.6,0.4c-0.3,0.1-0.5,0.2-0.8,0.2v-1.8c0.4-0.1,0.8-0.2,1.1-0.5
					c0.4-0.2,0.6-0.6,0.8-1h1.8v11.2h-2.4V11.6z"/>
				<path class="st1" d="M20.9,19.5c-0.4-0.6-0.6-1.4-0.6-2.6v-4.8c0-1,0.2-1.8,0.7-2.3c0.5-0.5,1.1-0.8,2.1-0.8
					c0.7,0,1.3,0.1,1.7,0.4c0.4,0.3,0.7,0.7,0.8,1.3c0.2,0.6,0.2,1.3,0.2,2.2h-2.2v-1c0-0.3,0-0.5-0.1-0.6c-0.1-0.1-0.2-0.2-0.4-0.2
					c-0.4,0-0.6,0.3-0.6,0.8v5.4c0,0.3,0,0.6,0.1,0.8c0.1,0.2,0.2,0.3,0.5,0.3c0.2,0,0.4-0.1,0.5-0.3c0.1-0.2,0.1-0.4,0.1-0.8v-1.6
					h-0.6v-1.9h2.7v6.5h-0.9l-0.4-0.9c-0.4,0.7-1,1-1.9,1C21.9,20.3,21.3,20.1,20.9,19.5z"/>
				<path class="st1" d="M27.7,11.6c-0.1,0.2-0.4,0.3-0.6,0.4c-0.3,0.1-0.5,0.2-0.8,0.2v-1.8c0.4-0.1,0.8-0.2,1.1-0.5
					c0.4-0.2,0.7-0.6,0.8-1h1.8v11.2h-2.4V11.6z"/>
				<path class="st1" d="M32,20.2v-9.1h-1.3V9h4.9v2.2h-1.3v9.1H32z"/>
				<path class="st1" d="M36.6,19.6c-0.5-0.5-0.7-1.3-0.7-2.4v-1.1h2.2v1.4c0,0.6,0.2,0.8,0.5,0.8c0.2,0,0.3-0.1,0.4-0.2
					c0.1-0.1,0.1-0.3,0.1-0.6c0-0.4,0-0.7-0.1-0.9c-0.1-0.2-0.2-0.4-0.3-0.6c-0.1-0.2-0.4-0.4-0.7-0.8l-1-1
					c-0.7-0.7-1.1-1.5-1.1-2.4c0-1,0.2-1.7,0.7-2.2c0.4-0.5,1.1-0.8,1.9-0.8c1,0,1.7,0.3,2.2,0.8c0.4,0.5,0.7,1.4,0.7,2.5h-2.3
					l0-0.8c0-0.1,0-0.3-0.1-0.4C38.9,11,38.8,11,38.6,11c-0.2,0-0.3,0-0.4,0.1c-0.1,0.1-0.1,0.2-0.1,0.4c0,0.4,0.2,0.7,0.6,1.1
					l1.3,1.3c0.3,0.3,0.6,0.6,0.8,0.8c0.2,0.3,0.4,0.6,0.5,0.9c0.1,0.4,0.2,0.8,0.2,1.3c0,1.1-0.2,1.9-0.6,2.5
					c-0.4,0.6-1.1,0.9-2,0.9C37.8,20.3,37.1,20.1,36.6,19.6z"/>
			</g>
		</g>
		<g>
			
				<rect x="24.7" y="15.7" transform="matrix(-1 -4.416213e-11 4.416213e-11 -1 50.8966 32.8456)" class="st3" width="1.4" height="1.4"/>
			
				<rect x="25.7" y="14.9" transform="matrix(-1 -4.805901e-11 4.805901e-11 -1 52.8972 31.2452)" class="st1" width="1.4" height="1.4"/>
		</g>
		<g>
			<rect x="9.5" y="8.9" class="st3" width="1.4" height="1.4"/>
			<rect x="8.5" y="8.1" class="st2" width="1.4" height="1.4"/>
		</g>
		<g>
			<rect x="17.1" y="16.7" class="st3" width="1.4" height="1.4"/>
			<rect x="16.1" y="15.9" class="st1" width="1.4" height="1.4"/>
		</g>
		<g>
			
				<rect x="28.7" y="18.9" transform="matrix(-1 4.416189e-11 -4.416189e-11 -1 58.899 39.2476)" class="st3" width="1.4" height="1.4"/>
			
				<rect x="29.7" y="19.7" transform="matrix(-1 4.416189e-11 -4.416189e-11 -1 60.8996 40.8481)" class="st1" width="1.4" height="1.4"/>
		</g>
		<g>
			<rect x="35.8" y="15.9" class="st3" width="1.4" height="1.4"/>
			<rect x="34.8" y="15.1" class="st1" width="1.4" height="1.4"/>
		</g>
		<g>
			
				<rect x="34.4" y="8.9" transform="matrix(-1 -4.546109e-11 4.546109e-11 -1 70.1024 19.2415)" class="st3" width="1.4" height="1.4"/>
			
				<rect x="35.4" y="8.1" transform="matrix(-1 -4.546109e-11 4.546109e-11 -1 72.103 17.641)" class="st1" width="1.4" height="1.4"/>
		</g>
	</g>
</g>
</svg>
