<?xml version="1.0" encoding="utf-8"?>
<!-- Generator: Adobe Illustrator 24.0.1, SVG Export Plug-In . SVG Version: 6.00 Build 0)  -->
<svg version="1.1" id="Layer_1" xmlns="http://www.w3.org/2000/svg" xmlns:xlink="http://www.w3.org/1999/xlink" x="0px" y="0px"
	 viewBox="0 0 50 32" style="enable-background:new 0 0 50 32;" xml:space="preserve">
<style type="text/css">
	.st0{fill:none;}
	.st1{fill:#FF5F00;}
	.st2{fill:#EB001B;}
	.st3{fill:#F79E1B;}
</style>
<g>
	<rect x="3.8" y="1" class="st0" width="42.4" height="30"/>
	<g>
		<rect x="20.6" y="8.1" class="st1" width="8.8" height="15.7"/>
		<path class="st2" d="M21.2,16c0-3.1,1.4-6,3.8-7.9c-4.3-3.4-10.6-2.7-14,1.7c-3.4,4.3-2.7,10.6,1.7,14c3.6,2.9,8.7,2.9,12.4,0
			C22.6,22,21.2,19.1,21.2,16z"/>
		<path class="st3" d="M41.2,16c0,5.5-4.5,10-10,10c-2.2,0-4.4-0.8-6.2-2.1c4.3-3.4,5.1-9.7,1.7-14c-0.5-0.6-1.1-1.2-1.7-1.7
			c4.3-3.4,10.6-2.7,14,1.7C40.4,11.6,41.2,13.8,41.2,16z"/>
		<path class="st3" d="M40.2,22.2v-0.3h0.1v-0.1H40v0.1h0.1L40.2,22.2L40.2,22.2z M40.9,22.2v-0.4h-0.1l-0.1,0.3l-0.1-0.3h-0.1v0.4
			h0.1v-0.3l0.1,0.3h0.1l0.1-0.3L40.9,22.2L40.9,22.2z"/>
	</g>
</g>
</svg>
