<?xml version="1.0" encoding="utf-8"?>
<!-- Generator: Adobe Illustrator 24.0.1, SVG Export Plug-In . SVG Version: 6.00 Build 0)  -->
<svg version="1.1" id="Layer_1" xmlns="http://www.w3.org/2000/svg" xmlns:xlink="http://www.w3.org/1999/xlink" x="0px" y="0px"
	 viewBox="0 0 50 32" style="enable-background:new 0 0 50 32;" xml:space="preserve">
<style type="text/css">
	.st0{fill-rule:evenodd;clip-rule:evenodd;fill:#303371;}
	.st1{fill-rule:evenodd;clip-rule:evenodd;fill:#00AED0;}
</style>
<g>
	<path class="st0" d="M19.2,16.2h0.1c0.5,0,0.9-0.1,1-0.2c0.2-0.1,0.3-0.3,0.3-0.5c0-0.2-0.1-0.4-0.2-0.5c-0.2-0.1-0.4-0.1-0.7-0.1
		h-0.3L19.2,16.2z M17.1,19.3l0.9-5.6h1.6c0.4,0,0.8,0,1,0.1c0.2,0,0.4,0.1,0.6,0.2c0.3,0.1,0.5,0.3,0.7,0.6
		c0.2,0.3,0.2,0.6,0.2,0.9c0,0.3-0.1,0.7-0.2,1c-0.2,0.3-0.4,0.5-0.6,0.7c-0.2,0.1-0.4,0.2-0.6,0.2c-0.2,0-0.6,0.1-1,0.1H19
		l-0.3,1.9H17.1z M23.8,17.5c0,0.2,0.1,0.4,0.2,0.6c0.2,0.1,0.4,0.2,0.6,0.2c0.3,0,0.5-0.1,0.7-0.3c0.2-0.2,0.3-0.5,0.3-0.8
		c0-0.2-0.1-0.4-0.2-0.6c-0.2-0.1-0.4-0.2-0.6-0.2c-0.3,0-0.5,0.1-0.7,0.3C23.9,16.9,23.8,17.2,23.8,17.5L23.8,17.5z M25.4,18.8
		c-0.2,0.2-0.4,0.4-0.7,0.5c-0.2,0.1-0.5,0.2-0.8,0.2c-0.5,0-0.8-0.2-1.1-0.5c-0.3-0.3-0.4-0.8-0.4-1.3c0-0.7,0.2-1.2,0.6-1.7
		c0.4-0.4,0.9-0.7,1.5-0.7c0.3,0,0.5,0.1,0.8,0.2c0.2,0.1,0.4,0.3,0.6,0.5l0.1-0.6h1.4l-0.6,3.9h-1.3L25.4,18.8z M28.7,19.1
		l-1.2-3.7H29l0.4,1.7c0,0,0,0.1,0,0.1c0.1,0.2,0.1,0.4,0.1,0.6c0-0.1,0.1-0.2,0.1-0.3c0-0.1,0.1-0.2,0.2-0.4l0.8-1.6h1.5L29,21
		h-1.5L28.7,19.1z"/>
	<path class="st1" d="M34.1,16.2h0.1c0.5,0,0.8-0.1,1-0.2c0.2-0.1,0.3-0.3,0.3-0.5c0-0.2-0.1-0.4-0.2-0.5c-0.1-0.1-0.4-0.1-0.7-0.1
		h-0.3L34.1,16.2z M32.2,19.3l0.9-5.6h1.5c0.4,0,0.7,0,0.9,0.1c0.2,0,0.4,0.1,0.5,0.2c0.3,0.1,0.5,0.3,0.6,0.6
		c0.1,0.3,0.2,0.6,0.2,0.9c0,0.3-0.1,0.7-0.2,1c-0.1,0.3-0.4,0.5-0.6,0.7c-0.2,0.1-0.3,0.2-0.5,0.2c-0.2,0-0.5,0.1-1,0.1H34
		l-0.3,1.9H32.2z M38.4,17.5c0,0.2,0.1,0.4,0.2,0.6c0.1,0.1,0.3,0.2,0.6,0.2c0.3,0,0.5-0.1,0.7-0.3c0.2-0.2,0.3-0.5,0.3-0.8
		c0-0.2-0.1-0.4-0.2-0.6c-0.1-0.1-0.3-0.2-0.6-0.2c-0.3,0-0.5,0.1-0.7,0.3C38.5,17,38.4,17.2,38.4,17.5L38.4,17.5z M39.8,18.8
		c-0.2,0.2-0.4,0.4-0.6,0.5c-0.2,0.1-0.5,0.2-0.7,0.2c-0.4,0-0.8-0.2-1.1-0.5c-0.3-0.3-0.4-0.8-0.4-1.3c0-0.7,0.2-1.2,0.6-1.7
		c0.4-0.4,0.8-0.7,1.4-0.7c0.3,0,0.5,0.1,0.7,0.2c0.2,0.1,0.4,0.3,0.6,0.5l0.1-0.6h1.3L41,19.3h-1.2L39.8,18.8z M43,13.4h1.3
		l-0.9,5.9h-1.3L43,13.4z"/>
	<path class="st1" d="M7.8,20.4l1.1-7c0-0.2,0.1-0.3,0.3-0.3h1.8c0.6,0,1,0,1.3,0.1c0.3,0,0.5,0.1,0.7,0.2c0.4,0.2,0.7,0.5,0.8,0.8
		c0.2,0.3,0.3,0.7,0.3,1.2c0,0.5-0.1,0.9-0.3,1.3c-0.2,0.4-0.5,0.7-0.8,0.9c-0.2,0.1-0.4,0.2-0.7,0.3c-0.5,0.1-1.2,0.2-1.7,0.2
		c-0.2,0.1-0.3,0.2-0.3,0.5l-0.3,1.9c-0.1,0.2-0.2,0.3-0.3,0.3l-1.6,0C7.8,20.7,7.7,20.6,7.8,20.4L7.8,20.4z"/>
	<path class="st0" d="M5.7,19.4l1.2-8C6.9,11.2,7,11,7.2,11h2c0.6,0,1.1,0.1,1.4,0.1c3.4-0.2,3,3.5,0.8,5.1
		c-0.2,0.2-0.5,0.2-0.8,0.3c-0.5,0.2-1.3,0.2-1.9,0.2c-0.2,0.1-0.3,0.3-0.4,0.5l-0.3,2.1c-0.1,0.2-0.2,0.3-0.4,0.3l-1.9,0
		C5.7,19.7,5.6,19.6,5.7,19.4L5.7,19.4z"/>
</g>
</svg>
