<?xml version="1.0" encoding="utf-8"?>
<!-- Generator: Adobe Illustrator 24.0.1, SVG Export Plug-In . SVG Version: 6.00 Build 0)  -->
<svg version="1.1" id="Layer_1" xmlns="http://www.w3.org/2000/svg" xmlns:xlink="http://www.w3.org/1999/xlink" x="0px" y="0px"
	 viewBox="0 0 50 32" style="enable-background:new 0 0 50 32;" xml:space="preserve">
<style type="text/css">
	.st0{fill:none;}
	.st1{fill:#2B6F76;}
	.st2{fill:#2FB355;}
</style>
<rect x="-45.9" y="-54.9" class="st0" width="141.7" height="141.7"/>
<g>
	<g>
		<g>
			<path class="st1" d="M34.2,17l0.4,0.1c-0.1,0.2-0.2,0.4-0.3,0.5s-0.3,0.2-0.5,0.2c-0.3,0-0.5-0.1-0.6-0.3
				C33,17.3,33,17.1,33,16.8c0-0.3,0.1-0.6,0.2-0.7c0.2-0.2,0.4-0.3,0.6-0.3c0.2,0,0.4,0.1,0.6,0.2c0.1,0.1,0.2,0.2,0.2,0.3
				l-0.4,0.1c0-0.1-0.1-0.2-0.1-0.2c-0.1-0.1-0.2-0.1-0.3-0.1c-0.1,0-0.3,0.1-0.3,0.2c-0.1,0.1-0.1,0.3-0.1,0.5c0,0.2,0,0.4,0.1,0.5
				c0.1,0.1,0.2,0.2,0.3,0.2c0.1,0,0.2,0,0.3-0.1C34.2,17.2,34.2,17.1,34.2,17z"/>
			<path class="st1" d="M33.8,17.8c-0.3,0-0.5-0.1-0.7-0.3c-0.2-0.2-0.3-0.4-0.3-0.8c0-0.3,0.1-0.6,0.3-0.8c0.2-0.2,0.4-0.3,0.7-0.3
				c0.3,0,0.5,0.1,0.6,0.2c0.1,0.1,0.2,0.2,0.2,0.4l0,0.1l-0.5,0.1l0-0.1c0-0.1-0.1-0.1-0.1-0.2c-0.1,0-0.1-0.1-0.2-0.1
				c-0.1,0-0.2,0-0.3,0.1c-0.1,0.1-0.1,0.2-0.1,0.4c0,0.2,0,0.4,0.1,0.5c0.1,0.1,0.2,0.1,0.3,0.1c0.1,0,0.2,0,0.2-0.1
				c0.1-0.1,0.1-0.1,0.1-0.3l0-0.1l0.5,0.2l0,0.1c-0.1,0.2-0.2,0.4-0.3,0.5C34.2,17.8,34,17.8,33.8,17.8z M33.8,15.9
				c-0.2,0-0.4,0.1-0.6,0.2c-0.1,0.2-0.2,0.4-0.2,0.7c0,0.3,0.1,0.5,0.2,0.6c0.1,0.2,0.3,0.2,0.6,0.2c0.2,0,0.3,0,0.5-0.1
				c0.1-0.1,0.2-0.2,0.2-0.3l-0.2-0.1c0,0.1-0.1,0.2-0.2,0.3c-0.1,0.1-0.2,0.1-0.3,0.1c-0.2,0-0.3-0.1-0.4-0.2
				c-0.1-0.1-0.1-0.3-0.1-0.6c0-0.2,0-0.4,0.2-0.5c0.1-0.1,0.2-0.2,0.4-0.2c0.1,0,0.2,0,0.3,0.1c0.1,0.1,0.1,0.1,0.1,0.2l0.2-0.1
				c0-0.1-0.1-0.2-0.1-0.2C34.2,15.9,34.1,15.9,33.8,15.9z"/>
		</g>
		<g>
			<path class="st1" d="M34.9,17.7v-1.9h1.4v0.3h-1v0.4h0.9v0.3h-0.9v0.5h1.1v0.3H34.9z"/>
			<path class="st1" d="M36.5,17.8h-1.6v-2h1.6v0.5h-1v0.3h0.9v0.5h-0.9v0.4h1.1V17.8z M35,17.6h1.3v-0.2h-1.1v-0.7h0.9v-0.2h-0.9
				V16h1v-0.2H35V17.6z"/>
		</g>
		<g>
			<path class="st1" d="M36.7,17.7v-1.9h0.8c0.2,0,0.3,0,0.4,0.1c0.1,0,0.2,0.1,0.2,0.2c0.1,0.1,0.1,0.2,0.1,0.3
				c0,0.1,0,0.3-0.1,0.4c-0.1,0.1-0.2,0.2-0.4,0.2c0.1,0,0.2,0.1,0.2,0.2c0.1,0.1,0.1,0.2,0.2,0.3l0.2,0.4h-0.5l-0.3-0.4
				c-0.1-0.1-0.2-0.2-0.2-0.3c0,0-0.1-0.1-0.1-0.1c0,0-0.1,0-0.2,0h-0.1v0.8H36.7z M37.1,16.6h0.3c0.2,0,0.3,0,0.3,0
				c0,0,0.1,0,0.1-0.1c0,0,0-0.1,0-0.1c0-0.1,0-0.1-0.1-0.2c0,0-0.1-0.1-0.1-0.1c0,0-0.1,0-0.3,0h-0.3V16.6z"/>
			<path class="st1" d="M38.5,17.8h-0.6l-0.3-0.4c-0.1-0.2-0.2-0.2-0.2-0.3c0,0-0.1,0-0.1-0.1c0,0-0.1,0-0.2,0v0.8h-0.5v-2h0.9
				c0.2,0,0.4,0,0.5,0.1c0.1,0,0.2,0.1,0.3,0.2c0.1,0.1,0.1,0.2,0.1,0.3c0,0.2,0,0.3-0.1,0.4c-0.1,0.1-0.1,0.1-0.2,0.2
				c0,0,0.1,0,0.1,0.1c0.1,0.1,0.1,0.2,0.2,0.3L38.5,17.8z M38,17.6h0.3l-0.2-0.2c-0.1-0.1-0.2-0.2-0.2-0.3c0-0.1-0.1-0.1-0.2-0.1
				l-0.2-0.1l0.2,0c0.1,0,0.3-0.1,0.3-0.1c0.1-0.1,0.1-0.2,0.1-0.3c0-0.1,0-0.2-0.1-0.3c0-0.1-0.1-0.1-0.2-0.1c-0.1,0-0.2,0-0.4,0
				h-0.7v1.7H37v-0.8h0.2c0.1,0,0.2,0,0.2,0c0.1,0,0.1,0.1,0.1,0.1c0,0,0.1,0.1,0.2,0.3L38,17.6z M37.4,16.7H37V16h0.4
				c0.2,0,0.3,0,0.3,0c0.1,0,0.1,0,0.2,0.1c0,0.1,0.1,0.1,0.1,0.2c0,0.1,0,0.1-0.1,0.2c0,0.1-0.1,0.1-0.1,0.1
				C37.7,16.7,37.6,16.7,37.4,16.7z M37.2,16.5h0.2c0.2,0,0.3,0,0.3,0c0,0,0.1,0,0.1,0c0,0,0-0.1,0-0.1c0,0,0-0.1,0-0.1
				c0,0-0.1,0-0.1,0c0,0-0.1,0-0.3,0h-0.2V16.5z"/>
		</g>
		<g>
			<path class="st1" d="M39,17.7v-1.6h-0.6v-0.3H40v0.3h-0.6v1.6H39z"/>
			<path class="st1" d="M39.5,17.8H39v-1.6h-0.6v-0.5h1.7v0.5h-0.6V17.8z M39.1,17.6h0.2V16h0.6v-0.2h-1.3V16h0.6V17.6z"/>
		</g>
		<g>
			<path class="st1" d="M40.2,17.7v-1.9h0.4v1.9H40.2z"/>
			<path class="st1" d="M40.7,17.8h-0.5v-2h0.5V17.8z M40.3,17.6h0.2v-1.7h-0.2V17.6z"/>
		</g>
		<g>
			<path class="st1" d="M41,17.7v-1.9h1.3v0.3h-0.9v0.4h0.8v0.3h-0.8v0.8H41z"/>
			<path class="st1" d="M41.4,17.8h-0.5v-2h1.5v0.5h-0.9v0.3h0.8V17h-0.8V17.8z M41,17.6h0.2v-0.8H42v-0.2h-0.8V16h0.9v-0.2H41V17.6
				z"/>
		</g>
		<g>
			<path class="st1" d="M42.6,17.7v-1.9h0.4v1.9H42.6z"/>
			<path class="st1" d="M43,17.8h-0.5v-2H43V17.8z M42.6,17.6h0.2v-1.7h-0.2V17.6z"/>
		</g>
		<g>
			<path class="st1" d="M43.3,17.7v-1.9h1.4v0.3h-1v0.4h0.9v0.3h-0.9v0.5h1.1v0.3H43.3z"/>
			<path class="st1" d="M44.8,17.8h-1.6v-2h1.6v0.5h-1v0.3h0.9v0.5h-0.9v0.4h1.1V17.8z M43.4,17.6h1.3v-0.2h-1.1v-0.7h0.9v-0.2h-0.9
				V16h1v-0.2h-1.2V17.6z"/>
		</g>
		<g>
			<path class="st1" d="M45.1,15.8h0.7c0.2,0,0.3,0,0.4,0c0.1,0,0.2,0.1,0.3,0.2c0.1,0.1,0.1,0.2,0.2,0.3c0,0.1,0.1,0.3,0.1,0.4
				c0,0.2,0,0.3-0.1,0.4c0,0.1-0.1,0.2-0.2,0.3c-0.1,0.1-0.2,0.1-0.3,0.2c-0.1,0-0.2,0-0.3,0h-0.7V15.8z M45.4,16.1v1.3h0.3
				c0.1,0,0.2,0,0.2,0c0.1,0,0.1,0,0.2-0.1c0,0,0.1-0.1,0.1-0.2c0-0.1,0-0.2,0-0.3c0-0.1,0-0.3,0-0.3c0-0.1-0.1-0.1-0.1-0.2
				c0,0-0.1-0.1-0.2-0.1c-0.1,0-0.2,0-0.3,0H45.4z"/>
			<path class="st1" d="M45.8,17.8H45v-2h0.8c0.2,0,0.3,0,0.4,0c0.1,0,0.2,0.1,0.3,0.2c0.1,0.1,0.2,0.2,0.2,0.3
				c0,0.1,0.1,0.3,0.1,0.5c0,0.2,0,0.3-0.1,0.4c-0.1,0.1-0.1,0.3-0.2,0.4c-0.1,0.1-0.2,0.1-0.3,0.2C46.1,17.8,45.9,17.8,45.8,17.8z
				 M45.1,17.6h0.6c0.1,0,0.2,0,0.3,0c0.1,0,0.2-0.1,0.2-0.1c0.1-0.1,0.1-0.2,0.2-0.3c0-0.1,0.1-0.2,0.1-0.4c0-0.2,0-0.3-0.1-0.4
				c0-0.1-0.1-0.2-0.2-0.3c-0.1-0.1-0.2-0.1-0.3-0.2c-0.1,0-0.2,0-0.3,0h-0.6V17.6z M45.7,17.5h-0.4V16h0.3c0.2,0,0.3,0,0.3,0
				c0.1,0,0.2,0.1,0.2,0.1c0.1,0.1,0.1,0.1,0.1,0.2c0,0.1,0,0.2,0,0.4c0,0.2,0,0.3,0,0.4c0,0.1-0.1,0.2-0.1,0.2
				c-0.1,0-0.1,0.1-0.2,0.1C45.9,17.5,45.8,17.5,45.7,17.5z M45.5,17.3h0.2c0.1,0,0.2,0,0.2,0c0,0,0.1,0,0.1-0.1
				c0,0,0.1-0.1,0.1-0.1c0-0.1,0-0.2,0-0.3c0-0.1,0-0.2,0-0.3c0-0.1-0.1-0.1-0.1-0.2c0,0-0.1-0.1-0.1-0.1c0,0-0.1,0-0.3,0h-0.1V17.3
				z"/>
		</g>
	</g>
	<path class="st2" d="M18,17.1l3.9,2.8c0,0,4.6-5.8,8.8-8.5c1.1,0,1.2,0,1.2,0s-4.3,3.8-10.1,13.4c-0.7-1-1.9-3.1-4.7-6.6L18,17.1z"
		/>
	<path id="XMLID_48_" class="st1" d="M10.5,13.8c0-0.4-0.2-0.7-0.8-0.7c-0.1,0-0.3,0-0.4,0h0H9.2v1.5c0.1,0,0.2,0,0.3,0
		C10,14.5,10.5,14.2,10.5,13.8"/>
	<path class="st1" d="M16.3,17.8c-2.7-0.1-3.3-1.9-3.3-3.2c0-1.6,1.8-3.6,6-2.6l0,1.5c-3-0.8-3.4,0.7-3.4,1.3c0,0.6,0.6,2.3,3.4,1.3
		v1.4c0,0,1.2,0.8,1.2,0.8l1.5-0.5h-1.8v-5.9h2.4v5.7l2.2-0.7c0.3-0.3,0.6-0.6,0.9-1l-3.8-8.6l-18.5,1l3.6,9.1v-5.6h2.4h0.1
		c0.3,0,0.7,0,1,0.1c1.6,0.2,2.3,1,2.3,2.2c0,1.2-1.5,2-3,2c-0.2,0-0.3,0-0.5,0v1.8H7l1.7,4.2l8.5-2.7L16.3,17.8z M21.2,8.4
		c0.8,0,1.5,0.7,1.5,1.5c0,0.8-0.7,1.5-1.5,1.5c-0.8,0-1.5-0.7-1.5-1.5C19.7,9,20.4,8.4,21.2,8.4z"/>
	<g>
		<g>
			<path class="st1" d="M33.1,10.7H35c0.4,0,0.7,0,0.9,0.1c0.3,0.1,0.5,0.2,0.7,0.4c0.2,0.2,0.4,0.4,0.5,0.7c0.1,0.3,0.2,0.6,0.2,1
				c0,0.4-0.1,0.7-0.2,0.9c-0.1,0.3-0.3,0.6-0.5,0.8c-0.2,0.2-0.4,0.3-0.7,0.4c-0.2,0.1-0.5,0.1-0.9,0.1h-1.9V10.7z M34.3,11.7v2.5
				h0.6c0.2,0,0.4,0,0.5,0c0.1,0,0.2-0.1,0.3-0.2c0.1-0.1,0.2-0.2,0.2-0.4c0.1-0.2,0.1-0.4,0.1-0.7c0-0.3,0-0.5-0.1-0.7
				c-0.1-0.2-0.1-0.3-0.2-0.4c-0.1-0.1-0.2-0.1-0.4-0.2c-0.1,0-0.3,0-0.7,0H34.3z"/>
			<path class="st1" d="M35,15.2h-2v-4.6H35c0.4,0,0.7,0,1,0.1c0.3,0.1,0.6,0.2,0.8,0.4c0.2,0.2,0.4,0.5,0.5,0.7
				c0.1,0.3,0.2,0.6,0.2,1.1c0,0.4-0.1,0.7-0.2,1c-0.1,0.3-0.3,0.6-0.6,0.8c-0.2,0.2-0.4,0.3-0.7,0.4C35.7,15.2,35.4,15.2,35,15.2z
				 M33.2,15.1H35c0.4,0,0.6,0,0.9-0.1c0.3-0.1,0.5-0.2,0.7-0.3c0.2-0.2,0.4-0.4,0.5-0.7c0.1-0.3,0.1-0.6,0.1-0.9
				c0-0.4-0.1-0.7-0.2-1c-0.1-0.3-0.3-0.5-0.5-0.7c-0.2-0.2-0.4-0.3-0.7-0.4c-0.2-0.1-0.5-0.1-0.9-0.1h-1.7V15.1z M34.9,14.2h-0.7
				v-2.6h0.5c0.4,0,0.6,0,0.7,0c0.2,0,0.3,0.1,0.4,0.2c0.1,0.1,0.2,0.2,0.3,0.4c0.1,0.2,0.1,0.4,0.1,0.7c0,0.3,0,0.5-0.1,0.7
				C36,13.8,35.9,14,35.8,14c-0.1,0.1-0.2,0.1-0.4,0.2C35.3,14.2,35.2,14.2,34.9,14.2z M34.4,14.1h0.6c0.2,0,0.4,0,0.5,0
				c0.1,0,0.2-0.1,0.3-0.1c0.1-0.1,0.1-0.2,0.2-0.3C36,13.4,36,13.2,36,13c0-0.3,0-0.5-0.1-0.6c-0.1-0.1-0.1-0.3-0.2-0.3
				c-0.1-0.1-0.2-0.1-0.4-0.2c-0.1,0-0.3,0-0.7,0h-0.3V14.1z"/>
		</g>
		<g>
			<path class="st1" d="M37.9,13.7l1-0.1c0.1,0.3,0.2,0.5,0.4,0.6c0.2,0.1,0.4,0.2,0.7,0.2c0.3,0,0.6-0.1,0.7-0.2
				c0.2-0.1,0.2-0.3,0.2-0.4c0-0.1,0-0.2-0.1-0.3s-0.2-0.1-0.4-0.2c-0.1,0-0.4-0.1-0.8-0.2c-0.5-0.1-0.9-0.3-1.1-0.4
				c-0.3-0.2-0.5-0.5-0.5-0.9c0-0.2,0.1-0.4,0.2-0.6c0.1-0.2,0.4-0.3,0.6-0.4c0.3-0.1,0.6-0.2,1-0.2c0.6,0,1.1,0.1,1.4,0.4
				c0.3,0.2,0.5,0.6,0.5,1l-1,0c0-0.2-0.1-0.4-0.3-0.5c-0.1-0.1-0.4-0.1-0.6-0.1c-0.3,0-0.5,0.1-0.7,0.2c-0.1,0.1-0.2,0.2-0.2,0.3
				c0,0.1,0,0.2,0.1,0.3c0.1,0.1,0.4,0.2,0.9,0.3c0.5,0.1,0.9,0.2,1.1,0.3c0.2,0.1,0.4,0.3,0.5,0.4c0.1,0.2,0.2,0.4,0.2,0.7
				c0,0.3-0.1,0.5-0.2,0.7c-0.2,0.2-0.4,0.4-0.7,0.5c-0.3,0.1-0.7,0.2-1.1,0.2c-0.6,0-1.1-0.1-1.4-0.4C38.2,14.6,38,14.2,37.9,13.7z
				"/>
			<path class="st1" d="M39.9,15.3c-0.6,0-1.2-0.1-1.5-0.4c-0.4-0.3-0.6-0.7-0.6-1.2l0-0.1l1.2-0.1l0,0.1c0.1,0.3,0.2,0.5,0.3,0.6
				c0.2,0.1,0.4,0.2,0.7,0.2c0.3,0,0.5-0.1,0.7-0.2c0.1-0.1,0.2-0.2,0.2-0.4c0-0.1,0-0.2-0.1-0.2c-0.1-0.1-0.2-0.1-0.3-0.2
				c-0.1,0-0.4-0.1-0.8-0.2c-0.6-0.1-0.9-0.3-1.2-0.5c-0.3-0.3-0.5-0.6-0.5-0.9c0-0.2,0.1-0.5,0.2-0.7c0.2-0.2,0.4-0.4,0.7-0.5
				c0.3-0.1,0.6-0.2,1-0.2c0.6,0,1.1,0.1,1.5,0.4c0.3,0.3,0.5,0.6,0.5,1l0,0.1l-1.2,0l0-0.1c0-0.2-0.1-0.4-0.2-0.4
				c-0.1-0.1-0.3-0.1-0.6-0.1c-0.3,0-0.5,0-0.6,0.1c-0.1,0.1-0.1,0.1-0.1,0.2c0,0.1,0,0.1,0.1,0.2c0.1,0.1,0.3,0.2,0.9,0.3
				c0.5,0.1,0.9,0.2,1.1,0.3c0.2,0.1,0.4,0.3,0.6,0.5c0.1,0.2,0.2,0.5,0.2,0.7c0,0.3-0.1,0.5-0.3,0.8c-0.2,0.2-0.4,0.4-0.7,0.5
				C40.8,15.3,40.4,15.3,39.9,15.3z M38,13.8c0.1,0.4,0.3,0.8,0.6,1c0.3,0.2,0.8,0.4,1.4,0.4c0.4,0,0.8-0.1,1-0.2
				c0.3-0.1,0.5-0.3,0.6-0.5c0.1-0.2,0.2-0.4,0.2-0.7c0-0.3-0.1-0.5-0.2-0.7c-0.1-0.2-0.3-0.3-0.5-0.4c-0.2-0.1-0.6-0.2-1.1-0.3
				c-0.5-0.1-0.8-0.2-1-0.3c-0.1-0.1-0.2-0.2-0.2-0.3c0-0.1,0.1-0.3,0.2-0.3c0.2-0.1,0.4-0.2,0.7-0.2c0.3,0,0.5,0.1,0.7,0.2
				c0.1,0.1,0.2,0.3,0.3,0.5l0.8,0c0-0.3-0.2-0.6-0.5-0.8c-0.3-0.2-0.8-0.3-1.4-0.3c-0.4,0-0.7,0-0.9,0.1c-0.3,0.1-0.4,0.2-0.6,0.4
				c-0.1,0.2-0.2,0.4-0.2,0.6c0,0.3,0.1,0.6,0.4,0.8c0.2,0.2,0.6,0.3,1.1,0.4c0.4,0.1,0.7,0.2,0.8,0.2c0.2,0.1,0.3,0.1,0.4,0.2
				c0.1,0.1,0.1,0.2,0.1,0.3c0,0.2-0.1,0.4-0.3,0.5c-0.2,0.1-0.4,0.2-0.8,0.2c-0.3,0-0.6-0.1-0.8-0.2c-0.2-0.1-0.3-0.3-0.4-0.6
				L38,13.8z"/>
		</g>
		<g>
			<path class="st1" d="M42.5,13.7l1-0.1c0.1,0.3,0.2,0.5,0.4,0.6c0.2,0.1,0.4,0.2,0.7,0.2c0.3,0,0.6-0.1,0.7-0.2
				c0.2-0.1,0.2-0.3,0.2-0.4c0-0.1,0-0.2-0.1-0.3s-0.2-0.1-0.4-0.2c-0.1,0-0.4-0.1-0.8-0.2c-0.5-0.1-0.9-0.3-1.1-0.4
				c-0.3-0.2-0.5-0.5-0.5-0.9c0-0.2,0.1-0.4,0.2-0.6c0.1-0.2,0.4-0.3,0.6-0.4c0.3-0.1,0.6-0.2,1-0.2c0.6,0,1.1,0.1,1.4,0.4
				c0.3,0.2,0.5,0.6,0.5,1l-1,0c0-0.2-0.1-0.4-0.3-0.5c-0.1-0.1-0.4-0.1-0.6-0.1c-0.3,0-0.5,0.1-0.7,0.2c-0.1,0.1-0.2,0.2-0.2,0.3
				c0,0.1,0,0.2,0.1,0.3c0.1,0.1,0.4,0.2,0.9,0.3c0.5,0.1,0.9,0.2,1.1,0.3c0.2,0.1,0.4,0.3,0.5,0.4c0.1,0.2,0.2,0.4,0.2,0.7
				c0,0.3-0.1,0.5-0.2,0.7c-0.2,0.2-0.4,0.4-0.7,0.5c-0.3,0.1-0.7,0.2-1.1,0.2c-0.6,0-1.1-0.1-1.4-0.4
				C42.8,14.6,42.6,14.2,42.5,13.7z"/>
			<path class="st1" d="M44.6,15.3c-0.6,0-1.2-0.1-1.5-0.4c-0.4-0.3-0.6-0.7-0.6-1.2l0-0.1l1.2-0.1l0,0.1c0.1,0.3,0.2,0.5,0.3,0.6
				c0.2,0.1,0.4,0.2,0.7,0.2c0.3,0,0.5-0.1,0.7-0.2c0.1-0.1,0.2-0.2,0.2-0.4c0-0.1,0-0.2-0.1-0.2c-0.1-0.1-0.2-0.1-0.3-0.2
				c-0.1,0-0.4-0.1-0.8-0.2c-0.6-0.1-0.9-0.3-1.2-0.5c-0.3-0.3-0.5-0.6-0.5-0.9c0-0.2,0.1-0.5,0.2-0.7c0.2-0.2,0.4-0.4,0.7-0.5
				c0.3-0.1,0.6-0.2,1-0.2c0.6,0,1.1,0.1,1.5,0.4c0.3,0.3,0.5,0.6,0.5,1l0,0.1l-1.2,0l0-0.1c0-0.2-0.1-0.4-0.2-0.4
				c-0.1-0.1-0.3-0.1-0.6-0.1c-0.3,0-0.5,0-0.6,0.1c-0.1,0.1-0.1,0.1-0.1,0.2c0,0.1,0,0.1,0.1,0.2c0.1,0.1,0.3,0.2,0.9,0.3
				c0.5,0.1,0.9,0.2,1.1,0.3c0.2,0.1,0.4,0.3,0.6,0.5c0.1,0.2,0.2,0.5,0.2,0.7c0,0.3-0.1,0.5-0.3,0.8c-0.2,0.2-0.4,0.4-0.7,0.5
				C45.4,15.3,45,15.3,44.6,15.3z M42.6,13.8c0.1,0.4,0.3,0.8,0.6,1c0.3,0.2,0.8,0.4,1.4,0.4c0.4,0,0.8-0.1,1-0.2
				c0.3-0.1,0.5-0.3,0.6-0.5c0.1-0.2,0.2-0.4,0.2-0.7c0-0.3-0.1-0.5-0.2-0.7c-0.1-0.2-0.3-0.3-0.5-0.4c-0.2-0.1-0.6-0.2-1.1-0.3
				c-0.5-0.1-0.8-0.2-1-0.3c-0.1-0.1-0.2-0.2-0.2-0.3c0-0.1,0.1-0.3,0.2-0.3c0.2-0.1,0.4-0.2,0.7-0.2c0.3,0,0.5,0.1,0.7,0.2
				c0.1,0.1,0.2,0.3,0.3,0.5l0.8,0c0-0.3-0.2-0.6-0.5-0.8c-0.3-0.2-0.8-0.3-1.4-0.3c-0.4,0-0.7,0-0.9,0.1c-0.3,0.1-0.4,0.2-0.6,0.4
				c-0.1,0.2-0.2,0.4-0.2,0.6c0,0.3,0.1,0.6,0.4,0.8c0.2,0.2,0.6,0.3,1.1,0.4c0.4,0.1,0.7,0.2,0.8,0.2c0.2,0.1,0.3,0.1,0.4,0.2
				c0.1,0.1,0.1,0.2,0.1,0.3c0,0.2-0.1,0.4-0.3,0.5c-0.2,0.1-0.4,0.2-0.8,0.2c-0.3,0-0.6-0.1-0.8-0.2c-0.2-0.1-0.3-0.3-0.4-0.6
				L42.6,13.8z"/>
		</g>
	</g>
</g>
</svg>
