<?xml version="1.0" encoding="utf-8"?>
<!-- Generator: Adobe Illustrator 24.0.1, SVG Export Plug-In . SVG Version: 6.00 Build 0)  -->
<svg version="1.1" id="Layer_1" xmlns="http://www.w3.org/2000/svg" xmlns:xlink="http://www.w3.org/1999/xlink" x="0px" y="0px"
	 viewBox="0 0 50 32" style="enable-background:new 0 0 50 32;" xml:space="preserve">
<style type="text/css">
	.st0{fill:none;}
	.st1{fill:#0072A7;}
</style>
<rect x="-45.9" y="-54.9" class="st0" width="141.7" height="141.7"/>
<g>
	<g>
		<path class="st1" d="M29.7,6.3c0.1,0,0.2,0.1,0.3,0.1c0.9,0.2,1.5,1.1,1.5,2c0,0.7,0,1.3,0,2c0,1.1-1,2-2.1,2c-8,0-16,0-24.1,0
			c-1,0-1.9-0.8-2.1-1.8c0-0.1,0-0.2-0.1-0.2c0-0.7,0-1.4,0-2.1c0-0.1,0.1-0.2,0.1-0.2c0.2-0.8,0.7-1.4,1.5-1.7
			c0.1,0,0.2-0.1,0.3-0.1C13.4,6.3,21.6,6.3,29.7,6.3z M13.7,10.8C13.7,10.8,13.7,10.8,13.7,10.8c0.5-0.9,0.9-1.9,1.3-2.9
			c-0.3-0.1-0.5,0-0.6,0.2c-0.1,0.3-0.2,0.5-0.3,0.8c-0.1,0.3-0.2,0.5-0.3,0.8c-0.3-0.7-0.5-1.3-0.8-1.9c0,0,0,0-0.1,0
			c-0.3,0.6-0.5,1.2-0.8,1.9c-0.2-0.6-0.5-1.1-0.7-1.7c-0.1-0.3-0.3-0.3-0.6-0.2c0.4,1,0.8,1.9,1.2,2.9c0,0,0.1,0,0.1,0
			c0.3-0.6,0.5-1.2,0.8-1.9c0.2,0.4,0.3,0.7,0.4,1C13.4,10.2,13.6,10.5,13.7,10.8z M9.4,10.8c0.9,0,1.5-0.6,1.5-1.5
			c0-0.8-0.7-1.5-1.5-1.5c-0.8,0-1.5,0.7-1.5,1.5C7.8,10.1,8.5,10.8,9.4,10.8z M21.1,9.3c0,0.4,0,0.8,0,1.2c0,0.1,0.1,0.2,0.2,0.2
			c0.4,0,0.8,0,1.2-0.1c0.6-0.2,0.9-0.7,0.9-1.3c0-0.6-0.3-1.1-0.9-1.3c-0.3-0.1-0.7-0.1-1.1-0.1c-0.2,0-0.3,0.1-0.3,0.3
			C21.1,8.5,21.1,8.9,21.1,9.3z M26,9.2c0.4-0.6,0.2-1.1-0.5-1.3c-0.2,0-0.3,0-0.5,0c-0.2,0-0.3,0.1-0.3,0.3c0,0.8,0,1.6,0,2.4
			c0,0.2,0.1,0.2,0.3,0.2c0.2,0,0.4,0,0.6,0c0.4,0,0.8-0.2,0.9-0.6C26.6,9.8,26.4,9.5,26,9.2z M18.1,9.5c0.1,0,0.1,0,0.1-0.1
			c0.4-0.2,0.6-0.5,0.5-0.9c0-0.4-0.3-0.6-0.7-0.7c-0.2,0-0.4,0-0.7,0c-0.2,0-0.3,0.1-0.3,0.3c0,0.8,0,1.5,0,2.3
			c0,0.1,0,0.3,0.2,0.3c0.2,0,0.2-0.1,0.2-0.3c0-0.3,0-0.6,0-0.9c0,0,0.1,0,0.1,0c0.2,0.3,0.5,0.6,0.7,0.9c0.2,0.3,0.4,0.3,0.7,0.2
			C18.6,10.3,18.4,9.9,18.1,9.5z M15.1,10.7c0.1,0,0.2,0,0.3,0c0.4,0,0.7,0,1.1,0c0.1,0,0.2-0.1,0.2-0.2c0-0.1-0.1-0.2-0.2-0.2
			c-0.1,0-0.3,0-0.4,0c-0.6,0-0.6,0-0.6-0.6c0-0.4,0-0.4,0.4-0.4c0.2,0,0.3,0,0.5,0c0.3,0,0.3,0,0.3-0.4c-0.3,0-0.5,0-0.8,0
			c-0.2,0-0.3,0-0.3-0.3c0-0.1,0-0.2,0-0.3c0-0.2,0.1-0.2,0.2-0.2c0.3,0,0.5,0,0.8,0c0.1,0,0.1-0.1,0.2-0.2
			c-0.1-0.1-0.1-0.2-0.2-0.2c-0.4,0-0.8,0-1.2,0c-0.2,0-0.2,0.1-0.2,0.2c0,0.5,0,0.9,0,1.4C15.1,9.9,15.1,10.3,15.1,10.7z
			 M19.2,10.7c0.5,0,0.9,0,1.4,0c0.1,0,0.2,0,0.2-0.2c0-0.1-0.1-0.2-0.2-0.2c-0.3,0-0.5,0-0.8,0c-0.1,0-0.2-0.1-0.2-0.1
			c-0.1-0.7-0.1-0.8,0.7-0.8c0,0,0.1,0,0.1,0c0.3,0,0.3,0,0.2-0.4c-0.3,0-0.6,0-0.9,0c-0.2,0-0.2,0-0.2-0.2c0-0.1,0-0.2,0-0.3
			c0-0.2,0.1-0.2,0.2-0.2c0.2,0,0.5,0,0.7,0c0.1,0,0.2,0,0.2-0.2c0-0.1-0.1-0.2-0.2-0.2c-0.4,0-0.8,0-1.2,0c-0.2,0-0.2,0.1-0.2,0.2
			c0,0.6,0,1.2,0,1.8C19.2,10.2,19.2,10.4,19.2,10.7z M6.6,10.7c0-0.2,0-0.4,0-0.6c0-0.5,0-0.5,0.5-0.6c0.4-0.1,0.7-0.4,0.7-0.8
			c0-0.4-0.2-0.7-0.7-0.8c-0.2,0-0.4,0-0.7-0.1C6.2,7.9,6.1,8,6.1,8.2c0,0.7,0,1.5,0,2.2C6.1,10.7,6.1,10.7,6.6,10.7z M27.9,10.7
			c0-0.1,0-0.1,0-0.1c-0.1-0.8,0.2-1.5,0.6-2.1c0.1-0.1,0.1-0.2,0.2-0.4c0-0.1,0.1-0.1,0.1-0.2c-0.3-0.1-0.5,0-0.6,0.2
			c-0.1,0.3-0.3,0.6-0.5,0.9c-0.2-0.3-0.4-0.6-0.5-0.9c-0.1-0.3-0.3-0.3-0.6-0.2c0.2,0.3,0.3,0.5,0.4,0.7c0.4,0.5,0.6,1.1,0.5,1.7
			C27.4,10.7,27.5,10.7,27.9,10.7z"/>
		<path class="st1" d="M6.4,25.7c0-0.1,0-0.3,0-0.4c0-2.9,0-5.7,0-8.6c0-0.3-0.1-0.4-0.4-0.4c-0.8,0-0.8,0-0.8-0.8
			c0-0.4,0-0.8,0-1.3c0-0.2,0-0.2,0.2-0.2c1.6,0,3.1,0,4.7,0c0.2,0,0.2,0.1,0.2,0.2c0,0.5,0,1,0,1.5c0,0.3-0.1,0.3-0.3,0.3
			c-1,0.1-1.8,0.5-2.4,1.2c-1,1.1-1.2,2.4-0.7,3.7c0.5,1.4,1.5,2.2,2.9,2.5c0.6,0.1,0.6,0.1,0.6,0.7c0,0.4,0,0.8,0,1.2
			c0,0.1,0,0.2-0.2,0.2C9,25.7,7.8,25.7,6.4,25.7z"/>
		<path class="st1" d="M12.2,19.3c-0.2,0.4-0.3,0.8-0.2,1.2c0.1,0.5,0.5,0.6,0.9,0.4c0.2-0.1,0.3,0,0.3,0.1c0,0.3,0,0.5,0.1,0.8
			c0.1-0.1,0.1-0.2,0.2-0.2c1.3-2,0-4.7-2.4-5.1c-0.8-0.1-1.6,0-2.2,0.5c-0.6,0.5-1.2,1-1.3,1.9c0,0.4,0,0.8,0.3,1.1
			c0.4,0.3,0.6,0.7,0.5,1.3c0,0.3,0.1,0.5,0.3,0.7C9,22.2,9.1,22.5,9,22.9c-1.2-0.2-2.1-2.2-1.7-3.8c0.4-1.9,2.4-3,4.3-2.5
			c1.9,0.5,2.9,2.5,2.3,4.4c-0.6,1.9-2.7,2.8-4.3,2.2c0.3,0.1,0.4,0,0.6-0.2c0.2-0.1,0.4-0.2,0.6-0.3c0.1-0.1,0.1-0.2,0.2-0.3
			c0-0.1,0.1-0.2,0.1-0.3c0.1-0.3,0-0.4-0.2-0.5c-0.2,0-0.3-0.1-0.4-0.2c-0.3-0.2-0.7-0.4-1-0.6c-0.1,0-0.1-0.1-0.2-0.1
			c-0.1,0-0.3-0.1-0.4-0.1c-0.1,0-0.2,0-0.2-0.1c0.1-0.3-0.1-0.3-0.3-0.4C8.4,20,8.4,20,8.5,19.9c-0.2,0-0.3-0.1-0.5-0.1
			c0.1-0.1,0.2-0.2,0.3-0.3c0.1,0,0.3,0,0.3,0.1c0.1,0.1,0.1,0.2,0.1,0.3c-0.1,0.2,0,0.3,0.2,0.4c0.2,0.1,0.3,0.2,0.5,0.3
			c0.1,0,0.1,0,0.2,0c0,0,0.1-0.1,0.1-0.1c0-0.1-0.1-0.1-0.2-0.1c-0.1,0-0.1,0-0.2,0c-0.1-0.1-0.3-0.1-0.3-0.3c0-0.3,0-0.5,0.3-0.6
			c0.2-0.1,0.3-0.2,0.5-0.2c0.2-0.1,0.4-0.2,0.5,0.1c0,0,0.1,0,0.1,0c0.1,0,0.2-0.1,0.1-0.1c0-0.2,0.4-0.2,0.1-0.4
			c-0.1-0.1-0.2-0.3-0.3-0.4c-0.1-0.1-0.2-0.2-0.3-0.2c-0.1,0-0.2,0.1-0.3,0.2c0,0-0.1,0.1-0.1,0.1c-0.1-0.2-0.1-0.3,0.1-0.4
			c0.2-0.2,0.5-0.1,0.9,0.3c0.1-0.1,0.2-0.1,0.3-0.2c0,0.1-0.1,0.2-0.1,0.3c0,0,0,0.1,0.1,0.1c0,0,0.1,0,0.1,0
			c0.1-0.1,0.1-0.2,0.2-0.2c0.1,0,0.2,0,0.3,0c0,0,0-0.1,0-0.1c-0.1-0.1-0.1-0.2-0.2-0.3c0-0.1,0.1-0.1,0.1-0.2
			c0-0.3-0.2-0.4-0.4-0.5c0.3-0.1,0.5,0,0.5,0.3c0,0.2,0.1,0.3,0.2,0.6c-0.1,0.2-0.1,0.3,0.3,0.6C11.9,18.9,11.9,19,12.2,19.3z"/>
		<path class="st1" d="M31.4,23c0,0.1-0.1,0.2-0.1,0.2c0,0.7,0,1.3,0,2c0,0.1,0.1,0.3,0.1,0.4c-0.1,0-0.3,0-0.4,0
			c0-0.1,0.1-0.3,0.1-0.4c0-0.7,0-1.4,0-2.1c0-0.2,0-0.4-0.3-0.5c0,0,0,0,0,0c0.7,0,0.7,0,1,0.6c0.2,0.5,0.5,1.1,0.7,1.6
			c0,0.1,0.1,0.2,0.2,0.3c0.1-0.3,0.2-0.5,0.3-0.7c0.2-0.5,0.4-0.9,0.6-1.4c0.1-0.2,0.2-0.3,0.5-0.3c0.1,0,0.2,0,0.5,0
			c-0.3,0.1-0.4,0.3-0.4,0.5c0,0.7,0,1.4,0,2.1c0,0.1,0.1,0.3,0.1,0.4c-0.2,0-0.5,0-0.7,0c0-0.2,0.1-0.3,0.1-0.5c0-0.7,0-1.3,0-2
			c0,0,0,0-0.1,0c-0.4,0.8-0.8,1.7-1.2,2.6C32.2,24.7,31.8,23.9,31.4,23z"/>
		<path class="st1" d="M28.3,25c0.3-0.6,0.6-1.2,0.8-1.8c0,0,0-0.1,0-0.1c0.1-0.5,0.4-0.7,1-0.6c-0.3,0-0.3,0.3-0.3,0.5
			c0,0.7,0,1.4,0,2.1c0,0.1,0.1,0.3,0.1,0.4c-0.2,0-0.5,0-0.7,0c0-0.1,0.1-0.3,0.1-0.5c0-0.7,0-1.4,0-2c0,0,0,0-0.1,0
			c-0.4,0.8-0.8,1.7-1.2,2.6c-0.4-0.9-0.8-1.7-1.2-2.5c0,0,0,0-0.1,0c0,0.1,0,0.1,0,0.2c0,0.6,0,1.3,0,1.9c0,0.1,0.1,0.3,0.1,0.4
			c-0.1,0-0.3,0-0.4,0c0-0.1,0.1-0.3,0.1-0.4c0-0.7,0-1.5,0-2.2c0-0.2-0.1-0.4-0.3-0.4c0.2,0,0.4,0,0.6,0c0.1,0,0.2,0.1,0.2,0.2
			c0.3,0.6,0.6,1.3,0.9,1.9C28.2,24.7,28.2,24.8,28.3,25z"/>
		<path class="st1" d="M25.5,15.7c0.5,0.5,0.7,1.2,1.4,1.5c0,0,0,0,0,0c-0.5,0.1-0.8-0.1-1-0.5c-0.2-0.3-0.4-0.5-0.6-0.8
			c-0.1-0.1-0.2-0.1-0.4-0.1c0,0-0.1,0.2-0.1,0.3c0,0.2,0,0.5,0,0.7c0,0.2,0.1,0.4,0.3,0.4c-0.3,0-0.7,0-0.9,0
			c0.1-0.1,0.2-0.3,0.2-0.4c0-0.7,0-1.5,0-2.2c0-0.2-0.1-0.4-0.3-0.4c0.5,0,1,0,1.5,0c0.4,0,0.7,0.3,0.7,0.7c0,0.3-0.2,0.6-0.6,0.8
			C25.6,15.7,25.6,15.7,25.5,15.7z M25.1,14.3c-0.4,0-0.4,0-0.4,0.4c0,0.2,0,0.5,0,0.7c0,0.2,0.1,0.3,0.3,0.3c0.1,0,0.2,0,0.4-0.1
			c0.3-0.1,0.5-0.5,0.4-0.8C25.7,14.5,25.5,14.3,25.1,14.3z"/>
		<path class="st1" d="M38.9,25.6c-0.2,0-0.5,0-0.7,0c0-0.2,0.1-0.3,0.1-0.5c0-0.7,0-1.4,0-2c0-0.2,0-0.5-0.3-0.5c0.4,0,0.9,0,1.4,0
			c0.5,0,0.7,0.3,0.8,0.6c0.1,0.4-0.1,0.7-0.6,0.9c0,0-0.1,0-0.2,0.1c0.5,0.5,0.7,1.2,1.3,1.5c-0.4,0.1-0.8,0-1-0.5
			c-0.2-0.3-0.4-0.6-0.6-0.8c-0.1-0.1-0.2-0.1-0.4-0.2c0,0.1-0.1,0.2-0.1,0.3c0,0.2,0,0.4,0,0.6C38.8,25.2,38.9,25.4,38.9,25.6z
			 M38.8,23.4c0,0.1,0,0.2,0,0.3c0,0.4,0.1,0.5,0.5,0.4c0.4-0.1,0.6-0.4,0.5-0.8c-0.1-0.4-0.4-0.6-0.8-0.5c-0.2,0-0.3,0.1-0.3,0.3
			C38.8,23.1,38.8,23.2,38.8,23.4z"/>
		<path class="st1" d="M23,24.1c0-0.9,0.5-1.5,1.3-1.6c0.7-0.1,1.4,0.4,1.6,1.1c0.3,0.9-0.3,1.9-1.1,2c-0.9,0.2-1.7-0.4-1.8-1.4
			C23,24.2,23,24.1,23,24.1z M24.5,22.6c-0.4,0-0.7,0.2-0.9,0.6c-0.2,0.6-0.2,1.1,0,1.7c0.2,0.5,0.5,0.7,1,0.6
			c0.4,0,0.7-0.3,0.9-0.7c0.1-0.5,0.1-1,0-1.5C25.3,22.8,25,22.6,24.5,22.6z"/>
		<path class="st1" d="M31.8,21.5c0.2-0.1,0.3-0.2,0.3-0.4c0-0.7,0-1.4,0-2.2c0-0.3-0.3-0.4-0.5-0.5c0.4-0.1,0.7-0.1,0.9,0.3
			c0.5,0.6,1,1.2,1.5,1.8c0.1,0.1,0.1,0.1,0.2,0.2c0-0.1,0.1-0.1,0.1-0.1c0-0.6,0-1.1,0-1.7c0-0.2,0-0.4-0.3-0.5c0.2,0,0.5,0,0.7,0
			c-0.3,0.1-0.3,0.3-0.3,0.5c0,0.8,0,1.5,0,2.3c0,0.1,0,0.2-0.1,0.3c-0.7-0.8-1.3-1.6-2-2.5c0,0.1,0,0.2,0,0.2c0,0.6,0,1.2,0,1.8
			c0,0.2,0,0.4,0.3,0.5C32.3,21.5,32.1,21.5,31.8,21.5z"/>
		<path class="st1" d="M35.2,22.5c0.6,0,1.3,0,1.9,0c0.2,0,0.4,0.1,0.3,0.3c0,0.1,0,0.2,0,0.3c-0.1-0.4-0.4-0.5-0.8-0.5
			c-0.8,0-0.8,0-0.8,0.8c0,0.6-0.1,0.5,0.5,0.5c0.1,0,0.2,0,0.3,0c0.3,0,0.4-0.1,0.5-0.4c0,0.1,0,0.3,0,0.4c0,0.1,0,0.3,0,0.4
			c-0.1-0.4-0.4-0.4-0.7-0.4c-0.7,0-0.6-0.1-0.6,0.6c0,0.2,0,0.4,0,0.6c0,0.2,0.1,0.3,0.3,0.3c0.2,0,0.4,0,0.7,0
			c0.4,0,0.6-0.3,0.8-0.5c-0.1,0.2-0.1,0.3-0.2,0.5c0,0.1-0.2,0.2-0.2,0.2c-0.6,0-1.3,0-1.9,0c0.1-0.2,0.2-0.3,0.2-0.5
			c0-0.7,0-1.4,0-2C35.6,22.8,35.5,22.6,35.2,22.5z"/>
		<path class="st1" d="M29,14.2c0,0.2,0,0.5,0,0.8c0-0.1-0.1-0.2-0.1-0.3c-0.2-0.4-0.5-0.6-0.9-0.5c-0.2,0-0.4,0.2-0.4,0.3
			c0,0.1,0.1,0.4,0.2,0.5c0.2,0.2,0.4,0.3,0.7,0.4c0.2,0.1,0.3,0.2,0.5,0.3c0.3,0.2,0.4,0.5,0.3,0.8c-0.1,0.3-0.4,0.6-0.7,0.6
			c-0.3,0-0.5-0.1-0.8-0.1c-0.1,0-0.3,0-0.5,0c0-0.2,0-0.4,0-0.6c0-0.1,0-0.2,0-0.2c0,0,0,0,0,0c0,0.1,0.1,0.1,0.1,0.2
			c0.2,0.5,0.6,0.7,1.1,0.6c0.4-0.1,0.6-0.6,0.2-0.9c-0.2-0.1-0.4-0.2-0.5-0.4c-0.2-0.1-0.4-0.3-0.6-0.4c-0.3-0.2-0.4-0.5-0.3-0.8
			c0.1-0.3,0.4-0.5,0.7-0.5c0.2,0,0.4,0.1,0.6,0.1C28.7,14.2,28.9,14.2,29,14.2z"/>
		<path class="st1" d="M46.5,23.1c-0.1-0.3-0.4-0.4-0.7-0.4c-0.2,0-0.4,0-0.6,0c-0.1,0-0.2,0-0.2,0.2c0,0.3,0,0.7,0,1
			c0.6,0.2,1.1,0.1,1.2-0.3c0,0.3,0,0.6,0,0.9c-0.1-0.4-0.3-0.4-0.6-0.4c-0.7,0-0.7,0-0.7,0.7c0,0.1,0,0.3,0,0.4
			c0,0.3,0,0.4,0.4,0.4c0.1,0,0.1,0,0.2,0c0.7,0,0.7,0,1.1-0.5c0,0,0,0,0,0c-0.3,0.7,0,0.6-0.8,0.6c-0.5,0-1,0-1.4,0
			c0.1-0.2,0.1-0.3,0.2-0.5c0-0.7,0-1.4,0-2.1c0-0.2,0-0.4-0.3-0.5c0.7,0,1.3,0,2,0c0.2,0,0.2,0.1,0.2,0.2
			C46.5,22.8,46.5,23,46.5,23.1z"/>
		<path class="st1" d="M28.2,21.4c0.1-0.2,0.3-0.3,0.4-0.5c0.3-0.8,0.7-1.5,1-2.3c0-0.1,0.1-0.2,0.2-0.3c0.2,0.4,0.4,0.8,0.5,1.2
			c0.2,0.5,0.4,1,0.6,1.4c0.1,0.2,0.2,0.3,0.3,0.5c-0.3,0-0.6,0-0.9,0c0.3-0.1,0.2-0.3,0.2-0.5c-0.2-0.5-0.2-0.5-0.8-0.5
			c0,0-0.1,0-0.1,0c-0.6,0-0.6,0-0.8,0.6c-0.1,0.2-0.1,0.4,0.2,0.5C28.7,21.4,28.4,21.4,28.2,21.4z M29.6,19
			C29.6,19,29.6,19,29.6,19c-0.3,0.4-0.4,0.8-0.6,1.2c0.4,0,0.7,0,1.1,0C30,19.8,29.8,19.4,29.6,19z"/>
		<path class="st1" d="M22.6,21.5c-0.3,0-0.6,0-1,0c0.3-0.1,0.3-0.3,0.2-0.5c-0.2-0.5-0.2-0.5-0.7-0.5c-0.1,0-0.1,0-0.2,0
			c-0.6,0-0.6,0-0.8,0.5c-0.1,0.3-0.1,0.4,0.2,0.5c-0.3,0-0.5,0-0.7,0c0.1-0.2,0.3-0.4,0.4-0.6c0.3-0.7,0.6-1.5,1-2.2
			c0-0.1,0.1-0.2,0.2-0.4c0.1,0.1,0.1,0.2,0.1,0.3c0.3,0.8,0.6,1.5,1,2.3C22.4,21.1,22.5,21.3,22.6,21.5z M20.5,20.3
			c0.4,0,0.7,0,1.1,0c-0.2-0.4-0.4-0.8-0.5-1.2c0,0-0.1,0-0.1,0C20.8,19.4,20.7,19.8,20.5,20.3z"/>
		<path class="st1" d="M24.2,21.5c-0.3,0-0.6,0-0.9,0c0.3-0.1,0.3-0.3,0.3-0.5c0-0.7,0-1.5,0-2.2c0-0.2-0.1-0.3-0.3-0.3
			c-0.4,0-0.7,0-0.8,0.5c0,0,0-0.1,0-0.1c0-0.6,0-0.6,0.6-0.6c0.5,0,1.1,0,1.6,0c0.4,0,0.4,0,0.4,0.4c0,0.1,0,0.1,0,0.3
			c-0.1-0.5-0.5-0.5-0.9-0.5c-0.1,0-0.2,0.1-0.2,0.2c0,0.8,0,1.6,0,2.4C24,21.2,24.2,21.3,24.2,21.5z"/>
		<path class="st1" d="M42.3,20.9c-0.4,0.6-1.1,0.8-1.8,0.5c-0.6-0.2-1-1-0.9-1.7c0.1-0.8,0.6-1.3,1.3-1.4c0.3,0,0.6,0.1,0.8,0.1
			c0.1,0,0.3,0,0.4,0c0,0.2,0,0.5,0.1,0.7c0,0,0,0,0,0c0-0.1-0.1-0.1-0.1-0.2c-0.2-0.5-0.6-0.6-1.1-0.6c-0.4,0.1-0.8,0.4-0.8,0.9
			c-0.1,0.4-0.1,0.7,0,1.1c0.1,0.5,0.3,0.8,0.8,0.9c0.5,0.1,0.9,0,1.2-0.3C42.2,21,42.3,20.9,42.3,20.9
			C42.3,20.9,42.3,20.9,42.3,20.9z"/>
		<path class="st1" d="M43.6,25c-0.4,0.6-0.9,0.8-1.6,0.6c-0.5-0.2-1-0.7-1-1.3c-0.1-1.1,0.6-1.9,1.6-1.8c0.2,0,0.4,0.1,0.5,0.1
			c0.2,0.1,0.3,0.1,0.5-0.1c0,0.3,0.1,0.6,0.1,0.9c0,0,0,0,0,0c0-0.1-0.1-0.2-0.1-0.3c-0.2-0.4-0.5-0.5-0.9-0.5
			c-0.4,0-0.7,0.2-0.9,0.5c-0.3,0.6-0.3,1.2-0.1,1.7c0.3,0.7,1.3,0.9,1.8,0.4C43.5,25.2,43.6,25.1,43.6,25z"/>
		<path class="st1" d="M22.3,22.6c0,0.2,0,0.5,0,0.8c0-0.1-0.1-0.1-0.1-0.1c-0.3-0.5-0.6-0.7-1.1-0.7c-0.5,0.1-0.8,0.3-1,0.9
			c-0.1,0.4-0.1,0.8,0,1.2c0.1,0.4,0.3,0.7,0.8,0.8c0.5,0.1,0.9,0,1.2-0.3c0,0,0.1-0.1,0.1-0.2c-0.2,0.5-0.7,0.7-1.3,0.7
			c-1.1-0.1-1.4-0.9-1.4-1.6c0-1,0.7-1.6,1.6-1.6c0.2,0,0.4,0.1,0.6,0.1C22,22.6,22.1,22.6,22.3,22.6z"/>
		<path class="st1" d="M21.9,14.7c-0.3-0.4-0.8-0.6-1.5-0.4c0,0.4,0,0.7,0,1.1c0,0,0,0.1,0.1,0.1c0.3,0.1,0.8,0,1-0.4
			c0,0.3,0,0.6,0,0.8c-0.1-0.1-0.3-0.2-0.4-0.2c-0.2,0-0.4,0-0.6,0c0,0.4,0,0.8,0,1.2c0,0.1,0.2,0.2,0.2,0.3c-0.3,0-0.6,0-0.9,0
			c0.1-0.1,0.2-0.3,0.2-0.4c0-0.7,0-1.5,0-2.2c0-0.2-0.1-0.3-0.3-0.4c0.6,0,1.3,0,1.9,0c0.1,0,0.2,0.1,0.2,0.2
			C21.9,14.5,21.9,14.6,21.9,14.7z"/>
		<path class="st1" d="M36.9,21.5c-0.3,0-0.7,0-1,0c0.3-0.1,0.3-0.3,0.3-0.5c0-0.7,0-1.4,0-2.2c0-0.2-0.1-0.3-0.3-0.3
			c-0.3,0-0.7,0-0.8,0.5c0,0,0-0.1,0-0.1c0-0.6-0.1-0.5,0.5-0.5c0.5,0,1.1,0,1.6,0c0.2,0,0.4,0.1,0.4,0.3c0,0.1,0,0.2,0,0.4
			c-0.2-0.5-0.4-0.6-0.9-0.5c-0.2,0-0.2,0.1-0.2,0.2c0,0.7,0,1.5,0,2.2C36.6,21.2,36.6,21.4,36.9,21.5z"/>
		<path class="st1" d="M32.2,14.8c-0.2-0.4-0.5-0.6-0.9-0.5c-0.1,0-0.1,0.1-0.1,0.2c0,0.8,0,1.6,0,2.4c0,0.1,0.1,0.2,0.2,0.3
			c-0.3,0-0.6,0-0.8,0c0.1-0.1,0.2-0.2,0.2-0.3c0-0.8,0-1.7,0-2.5c0,0,0,0,0,0c-0.6-0.1-0.8,0-1,0.4c0-0.2,0-0.2,0-0.3
			c0-0.2,0.1-0.3,0.3-0.3c0.6,0,1.2,0,1.8,0c0.4,0,0.4,0,0.4,0.4C32.2,14.6,32.2,14.6,32.2,14.8z"/>
		<path class="st1" d="M25.5,18.4c0.4,0,0.7,0,1.1,0c-0.4,0.1-0.4,0.3-0.4,0.6c0,0.6,0,1.3,0,1.9c0,0.3,0.1,0.4,0.4,0.4
			c0.3,0,0.5,0,0.8,0c0.2-0.1,0.4-0.2,0.5-0.3c0,0.4-0.1,0.5-0.6,0.5c-0.6,0-1.2,0-1.9,0c0.3-0.1,0.4-0.3,0.4-0.5c0-0.7,0-1.4,0-2.2
			C25.8,18.6,25.7,18.4,25.5,18.4z"/>
		<path class="st1" d="M10.8,24.4c-0.1-0.3,0-0.4,0.2-0.5c0.6-0.2,1.1-0.3,1.7,0c0.4,0.2,0.8,0.1,1.2-0.1c0.3-0.1,0.6-0.2,0.9-0.1
			c-0.2,0.2-0.3,0.4-0.6,0.4c-0.3,0-0.5,0.2-0.8,0.2c-0.3,0-0.6,0-0.8-0.1c-0.5-0.2-1-0.2-1.5,0C11.1,24.4,11,24.4,10.8,24.4
			C10.9,24.5,10.9,24.4,10.8,24.4z"/>
		<path class="st1" d="M15.3,23.3c-0.1,0.2-0.3,0.3-0.5,0.3c-0.3,0-0.6,0.1-0.9,0.2c-0.4,0.1-0.8,0.2-1.2,0c-0.5-0.2-1-0.2-1.6,0
			c-0.1,0-0.2,0-0.3,0c0,0,0-0.1,0-0.1c0.1,0,0.2-0.1,0.3-0.1c0.3-0.1,0.7-0.2,1-0.3c0.1,0,0.3-0.1,0.4,0c0.5,0.2,1,0.2,1.5,0
			C14.5,23.1,14.9,23.1,15.3,23.3z"/>
		<path class="st1" d="M39.2,21.5c-0.3,0-0.7,0-1,0c0.3-0.1,0.3-0.3,0.3-0.6c0-0.7,0-1.3,0-2c0-0.2-0.1-0.3-0.1-0.5
			c0.2,0,0.4,0,0.6,0c0,0.2-0.1,0.3-0.1,0.5c0,0.7,0,1.4,0,2C38.9,21.2,38.9,21.4,39.2,21.5z"/>
		<path class="st1" d="M23.3,17.2c-0.3,0-0.6,0-1,0c0.3,0,0.4-0.2,0.4-0.5c0-0.7,0-1.4,0-2.1c0-0.2-0.1-0.4-0.3-0.5c0.3,0,0.7,0,1,0
			c-0.2,0-0.3,0.2-0.3,0.4c0,0.7,0,1.5,0,2.2C23.1,17,23.2,17.1,23.3,17.2z"/>
		<path class="st1" d="M10.8,25c-0.1-0.2,0-0.4,0.2-0.5c0.6-0.2,1.1-0.2,1.7,0c0.4,0.2,0.9,0.1,1.4-0.1c-0.3,0.2-0.6,0.4-0.9,0.5
			c-0.1,0.1-0.3,0-0.4,0c-0.6-0.3-1.2-0.3-1.8,0C11,25,11,25,10.8,25C10.9,25.1,10.9,25.1,10.8,25z"/>
		<path class="st1" d="M12.6,23.1c0.2-0.2,0.4-0.3,0.6-0.2c0.2,0,0.4,0,0.6-0.1c0.6-0.3,1.2-0.2,1.9,0.1c-0.1,0.3-0.2,0.3-0.5,0.2
			c-0.4-0.2-0.8-0.1-1.2,0.1C13.5,23.3,13,23.3,12.6,23.1z"/>
		<path class="st1" d="M16,22.3c-0.1,0.1-0.1,0.2-0.2,0.4c-0.2-0.1-0.3-0.1-0.5-0.1c-0.5-0.2-0.9-0.2-1.4,0
			c-0.3,0.1-0.5,0.1-0.8,0.2c0.3-0.5,1.3-0.8,1.9-0.7C15.3,22.1,15.6,22.2,16,22.3z"/>
		<path class="st1" d="M13.3,16c-0.2,0-0.3,0-0.5-0.1c-0.6-0.3-1.2-0.3-1.8,0c-0.1,0-0.1,0-0.2,0.1c-0.1-0.3-0.1-0.3,0.2-0.5
			c0.7-0.3,1.3-0.2,1.9,0.1c0.1,0.1,0.2,0.2,0.3,0.3C13.3,15.9,13.3,16,13.3,16z"/>
		<path class="st1" d="M13.7,22c0.3-0.6,0.7-0.8,1.3-0.6c0.2,0.1,0.4,0.1,0.6,0.2c0.2,0,0.4,0.1,0.6,0.1c0,0.4-0.1,0.4-0.4,0.4
			c-0.1,0-0.2-0.1-0.3-0.1c-0.5-0.2-1-0.2-1.5,0C13.9,22,13.8,22,13.7,22z"/>
		<path class="st1" d="M13.7,16.6c-0.3,0-0.6-0.1-0.9-0.1c-0.3-0.1-0.7-0.1-1-0.2c-0.3,0-0.5-0.1-0.8-0.1c0.5-0.3,1.1-0.4,1.7-0.2
			c0.2,0.1,0.4,0.1,0.6,0.1C13.5,16.2,13.6,16.3,13.7,16.6z"/>
		<path class="st1" d="M16.3,21.5c-0.3-0.1-0.6-0.1-0.9-0.2c-0.4-0.2-0.9-0.2-1.3-0.1c0-0.4,0.1-0.5,0.5-0.5c0.2,0,0.5,0.1,0.7,0.1
			c0.2,0,0.4,0.1,0.6,0.1C16.1,21,16.3,21.1,16.3,21.5z"/>
		<path class="st1" d="M10.8,25.7c-0.1-0.3,0-0.4,0.3-0.5c0.6-0.2,1.1-0.3,1.6,0c0,0,0.1,0,0.1,0.1C12.2,25.5,11.6,25.7,10.8,25.7z"
			/>
		<path class="st1" d="M13,15.4c-0.7-0.4-1.4-0.3-2.1,0c-0.1-0.4-0.1-0.4,0.2-0.5c0.4-0.1,0.8-0.3,1.2-0.2
			C12.7,14.8,12.9,15,13,15.4z"/>
		<path class="st1" d="M12.6,14.6c-0.6-0.2-1.1,0-1.7,0.2c0-0.1-0.1-0.1-0.1-0.1c-0.1-0.6-0.1-0.6,0.5-0.6c0.2,0,0.4,0,0.6,0
			C12.4,14.1,12.4,14.1,12.6,14.6z"/>
		<path class="st1" d="M16.1,20.9c-0.6-0.1-1.2-0.2-1.8-0.4c-0.1-0.3,0-0.4,0.3-0.4c0.4,0,0.8,0.2,1.2,0.3
			C15.9,20.5,15.9,20.7,16.1,20.9z"/>
		<path class="st1" d="M14.3,19.9c0-0.1,0-0.2,0-0.3c0.5-0.1,1.2-0.1,1.3,0.5C15.2,20.1,14.8,20,14.3,19.9z"/>
		<path class="st1" d="M13.9,17.1c-0.4,0.1-0.7,0.2-1-0.1c-0.2-0.2-0.4-0.3-0.7-0.5c0.3,0.1,0.6,0.2,0.9,0.2c0.1,0,0.3,0.1,0.4,0
			C13.7,16.7,13.9,16.8,13.9,17.1z"/>
		<path class="st1" d="M15.2,19.4c-0.3,0-0.6,0-1-0.1c0-0.1,0-0.2-0.1-0.3C14.6,18.8,15,18.9,15.2,19.4z"/>
		<path class="st1" d="M14.1,18.5c0.5-0.3,0.6-0.2,0.8,0.2C14.1,18.8,14.1,18.9,14.1,18.5z"/>
		<path class="st1" d="M14.2,17.6c-0.6,0.3-0.6,0.3-0.8-0.1C13.9,17.2,14.1,17.2,14.2,17.6z"/>
		<path class="st1" d="M14.5,18.1c-0.2,0.1-0.4,0.1-0.6,0.1c-0.1-0.1-0.1-0.2-0.2-0.3C14.3,17.7,14.4,17.7,14.5,18.1z"/>
		<path class="st1" d="M9.4,8.2c0.6,0,1.1,0.4,1.1,1.1c0,0.6-0.5,1.1-1.1,1.1c-0.6,0-1.1-0.5-1.1-1.1C8.2,8.7,8.7,8.2,9.4,8.2z"/>
		<path class="st1" d="M21.6,9.3c0-0.3,0-0.5,0-0.8c0-0.2,0.1-0.2,0.2-0.2c0.2,0,0.3,0,0.5,0.1c0.5,0.1,0.7,0.4,0.7,0.9
			c0,0.5-0.2,0.8-0.6,1c-0.7,0.2-0.8,0.2-0.8-0.5C21.6,9.6,21.6,9.4,21.6,9.3z"/>
		<path class="st1" d="M25.2,10.4c0-0.3,0-0.5,0-0.7c0-0.1,0.1-0.2,0.2-0.2c0.2,0,0.5,0,0.7,0.2c0.1,0.2,0,0.5-0.3,0.6
			C25.6,10.4,25.4,10.3,25.2,10.4z"/>
		<path class="st1" d="M25.2,9.1c0-0.3,0-0.5,0-0.8c0.2,0,0.4,0,0.5,0.2c0.1,0.1,0.1,0.3,0,0.5C25.7,9.1,25.4,9.1,25.2,9.1z"/>
		<path class="st1" d="M17.5,8.2c0.2,0,0.3,0,0.4,0.1c0.1,0.1,0.3,0.2,0.4,0.3c0,0.1,0,0.4-0.1,0.4c-0.1,0.1-0.4,0.1-0.6,0.1
			c0,0-0.1-0.1-0.1-0.2C17.5,8.8,17.5,8.5,17.5,8.2z"/>
		<path class="st1" d="M6.5,8.7c0.1-0.1-0.2-0.4,0.2-0.4c0.4,0,0.6,0.2,0.6,0.5c0,0.3-0.2,0.5-0.6,0.5C6.4,9.2,6.6,8.9,6.5,8.7z"/>
	</g>
	<path class="st1" d="M11,25.7L11,25.7c0-0.1,1.4-0.3,1.9-0.5l0,0c0.1,0,0.2,0,0.4,0c0.1,0,0.2,0,0.3,0c0.2,0,0.4-0.1,0.6-0.2
		c0.2-0.1,0.5-0.1,0.6-0.1c0.2,0,0.4,0.1,0.6,0.1c0.2,0.1,0.5,0.2,0.7,0.1c0.2,0,0.4-0.1,0.6-0.1c0.3-0.1,0.5-0.2,0.8-0.1
		c0.5,0.1,1,0.2,1,0.2l0,0l0.3,0.5L11,25.7z M12.9,25.3c-0.3,0.1-1,0.3-1.5,0.4l7.3,0l-0.3-0.4c-0.1,0-0.5-0.2-0.9-0.2
		c-0.3,0-0.5,0-0.8,0.1c-0.2,0.1-0.4,0.1-0.7,0.1c-0.3,0-0.5-0.1-0.8-0.1c-0.2-0.1-0.4-0.1-0.6-0.1c-0.2,0-0.4,0.1-0.6,0.1
		c-0.2,0.1-0.4,0.1-0.6,0.2c-0.1,0-0.2,0-0.3,0C13.1,25.3,13,25.3,12.9,25.3z"/>
	<path class="st1" d="M18.2,25c0,0-0.4-0.3-0.9-0.2c-0.1,0-0.3,0.1-0.4,0.1c-0.5,0.1-1.1,0.3-1.7,0c-0.6-0.3-1.6,0.2-1.6,0.2l0,0
		l-0.6,0l0-0.4l0.5,0c0.2-0.1,1.2-0.5,2-0.1c0.5,0.2,0.9,0.1,1.4-0.1c0.2,0,0.3-0.1,0.5-0.1c0.2,0,0.4,0,0.6,0c0.1,0,0.2,0,0.2,0
		c0,0,0,0,0.2,0.4c0,0.1,0.1,0.2,0.1,0.2L18.2,25z M13,24.8l0,0.3l0.5,0l0,0c0,0,1.1-0.5,1.7-0.2c0.6,0.3,1.2,0.1,1.6,0
		c0.2,0,0.3-0.1,0.4-0.1c0.5-0.1,0.9,0.2,0.9,0.2l0.1,0c0,0,0-0.1,0-0.1c-0.1-0.1-0.2-0.3-0.2-0.4c-0.1,0-0.1,0-0.2,0
		c-0.2,0-0.4-0.1-0.6,0c-0.1,0-0.3,0.1-0.5,0.1c-0.5,0.1-0.9,0.3-1.4,0.1c-0.7-0.3-1.7,0.1-1.9,0.1l0,0L13,24.8z"/>
	<path class="st1" d="M16.1,24.5L16.1,24.5c-0.4,0-0.8-0.1-1-0.2c-0.2-0.1-0.7,0-1,0.1l0,0l-0.1-0.4l0,0c0.2,0,1-0.3,1.4-0.1
		c0.2,0.1,0.8,0.3,1.3,0.1c0.5-0.2,0.9-0.2,1.1-0.2c0,0,0,0,0.4,0.5l0,0.1l-0.1,0c-0.1,0-0.8-0.2-1.2,0
		C16.5,24.4,16.3,24.5,16.1,24.5z M14.9,24.1c0.1,0,0.2,0,0.3,0c0.2,0.1,0.6,0.2,1,0.2c0.2,0,0.5,0,0.7-0.1c0.4-0.2,1-0.1,1.2-0.1
		c-0.1-0.2-0.2-0.4-0.3-0.4c-0.2,0-0.6,0-1,0.2c-0.5,0.2-1.1,0-1.3-0.1c-0.4-0.2-1.1,0-1.3,0.1l0.1,0.3
		C14.3,24.2,14.6,24.1,14.9,24.1z"/>
	<path class="st1" d="M15.9,23.9c-0.3,0-0.9-0.3-0.9-0.3l0,0l0.3-0.3l0,0c0,0,0.7,0.2,1.2,0c0.5-0.1,0.8-0.2,0.8-0.2l0,0l0.3,0.5
		l-0.1,0c-0.4,0-0.7,0-0.8,0.1C16.6,23.8,16.2,23.9,15.9,23.9C15.9,23.9,15.9,23.9,15.9,23.9z M15.1,23.6c0.1,0.1,0.6,0.3,0.8,0.3
		c0.3,0,0.7-0.1,0.8-0.2c0.2-0.1,0.5-0.1,0.8-0.1l-0.2-0.4c-0.1,0-0.4,0.1-0.8,0.2c-0.4,0.1-1.1,0-1.2,0L15.1,23.6z"/>
	<path class="st1" d="M16,23.3C16,23.3,16,23.3,16,23.3c-0.4,0-0.6-0.1-0.6-0.1l0,0l0.3-0.3l0,0c0,0,0,0,0,0c1,0,1.3-0.3,1.3-0.3
		l0,0l0.3,0.5l-0.6,0.2C16.7,23.1,16.4,23.3,16,23.3z M15.5,23.1c0.1,0,0.3,0.1,0.5,0.1c0.3,0,0.7-0.1,0.7-0.1l0.5-0.2L17,22.6
		c-0.1,0.1-0.5,0.3-1.3,0.3L15.5,23.1z"/>
	<path class="st1" d="M15.8,22.7C15.8,22.7,15.8,22.7,15.8,22.7L15.8,22.7l0-0.5l0,0c0.4,0,0.8-0.2,0.8-0.3l0,0l0.2,0.5l0,0
		C16.5,22.7,16,22.7,15.8,22.7z M15.9,22.3l-0.1,0.3c0.2,0,0.7,0,1.1-0.2l-0.2-0.3C16.6,22.2,16.3,22.3,15.9,22.3z"/>
	<path class="st1" d="M16.3,22.1c-0.1,0-0.1,0-0.2,0l0,0l0.2-0.4l0.4,0l0.2,0.3l0,0C16.7,21.9,16.5,22.1,16.3,22.1z M16.1,22
		c0.3,0.1,0.5-0.1,0.6-0.1l-0.1-0.2l-0.3,0L16.1,22z"/>
</g>
</svg>
