<?xml version="1.0" encoding="utf-8"?>
<!-- Generator: Adobe Illustrator 24.0.1, SVG Export Plug-In . SVG Version: 6.00 Build 0)  -->
<svg version="1.1" id="Layer_1" xmlns="http://www.w3.org/2000/svg" xmlns:xlink="http://www.w3.org/1999/xlink" x="0px" y="0px"
	 viewBox="0 0 50 32" style="enable-background:new 0 0 50 32;" xml:space="preserve">
<style type="text/css">
	.st0{fill:none;}
	.st1{fill-rule:evenodd;clip-rule:evenodd;fill:#0033AB;}
	.st2{fill-rule:evenodd;clip-rule:evenodd;fill:#FA9E0D;}
</style>
<rect x="-45.9" y="-54.9" class="st0" width="141.7" height="141.7"/>
<g id="Layer_x0020_1" transform="translate(-0.2312,-267.8841)">
	<path id="path10" class="st1" d="M21.9,284.4l-1.7,4.7l-0.2-1c-0.4-1.2-1.4-2.4-2.5-2.9l1.6,6l1.9,0l2.8-6.9L21.9,284.4L21.9,284.4
		z"/>
	<polygon id="polygon12" class="st1" points="25.2,291.3 23.4,291.3 24.5,284.4 26.3,284.4 	"/>
	<path id="path14" class="st1" d="M31.6,284.6c-0.4-0.1-0.9-0.3-1.6-0.3c-1.8,0-3,0.9-3,2.3c0,1,0.9,1.5,1.6,1.9
		c0.7,0.3,0.9,0.6,0.9,0.9c0,0.5-0.6,0.7-1.1,0.7c-0.7,0-1.1-0.1-1.7-0.4l-0.2-0.1l-0.2,1.5c0.4,0.2,1.2,0.4,2,0.4
		c1.9,0,3.1-0.9,3.1-2.4c0-0.8-0.5-1.4-1.5-1.9c-0.6-0.3-1-0.5-1-0.9c0-0.3,0.3-0.6,1-0.6c0.6,0,1,0.1,1.3,0.3l0.2,0.1L31.6,284.6
		L31.6,284.6z"/>
	<path id="path16" class="st1" d="M36.2,284.4h-1.4c-0.4,0-0.7,0.1-0.9,0.6l-2.6,6.3h1.9c0,0,0.3-0.9,0.4-1c0.2,0,2,0,2.3,0
		c0.1,0.2,0.2,1,0.2,1h1.7L36.2,284.4L36.2,284.4z M34,288.8c0.1-0.4,0.7-1.9,0.7-1.9c0,0,0.1-0.4,0.2-0.7l0.1,0.6
		c0,0,0.3,1.6,0.4,2C35.2,288.8,34.4,288.8,34,288.8L34,288.8z"/>
	<path id="path18" class="st2" d="M18.5,284.4h-2.9l0,0.1c2.2,0.6,3.7,2,4.3,3.6l-0.6-3.2C19.2,284.5,18.9,284.4,18.5,284.4z"/>
	<polygon id="polygon20" class="st1" points="9.1,276.6 10,281.2 12.3,276.7 13.5,276.7 10.3,282.7 9.1,282.7 7.8,276.8 	"/>
	<path id="path22" class="st1" d="M16.2,280.8h-2.7c-0.1,0.8,0.3,1.2,1,1.2c0.5,0,1-0.2,1.5-0.5l0,0.8c-0.5,0.3-1.1,0.5-1.8,0.5
		c-1.2,0-2-0.7-1.7-2.2c0.2-1.4,1.2-2.2,2.3-2.2c1.3,0,1.7,1,1.5,2.2C16.2,280.6,16.2,280.7,16.2,280.8z M14.6,279.1
		c-0.4,0-0.8,0.3-1,1h1.7C15.3,279.5,15.1,279.1,14.6,279.1z"/>
	<path id="path24" class="st1" d="M17.9,280.3l-0.4,2.4h-1l0.7-4.2h0.9l0,0.8c0.4-0.5,0.8-0.9,1.5-0.9l0,1
		C18.9,279.5,18.3,279.8,17.9,280.3L17.9,280.3z"/>
	<path id="path26" class="st1" d="M19.6,282.7l0.7-4.2h1l-0.7,4.2H19.6z M20.9,277.8c-0.3,0-0.6-0.2-0.5-0.6
		c0.1-0.4,0.4-0.6,0.7-0.6c0.3,0,0.6,0.3,0.5,0.6C21.5,277.5,21.2,277.8,20.9,277.8z"/>
	<path id="path28" class="st1" d="M24.2,277.3c-0.4,0-0.6,0.2-0.6,0.5l-0.1,0.6h0.8l0,0.9h-0.9l-0.5,3.4h-1l0.5-3.4h-0.6l0.1-0.9
		h0.6l0.1-0.7c0.1-0.9,0.8-1.3,1.7-1.3c0.2,0,0.3,0,0.4,0l0,0.9C24.5,277.3,24.3,277.3,24.2,277.3z"/>
	<path id="path30" class="st1" d="M24.2,282.7l0.7-4.2h1l-0.7,4.2C25.2,282.7,24.2,282.7,24.2,282.7z M25.5,277.8
		c-0.3,0-0.6-0.2-0.5-0.6c0.1-0.4,0.4-0.6,0.7-0.6c0.3,0,0.6,0.3,0.5,0.6C26.1,277.5,25.8,277.8,25.5,277.8L25.5,277.8z"/>
	<path id="path32" class="st1" d="M29.9,280.8h-2.7c-0.1,0.8,0.3,1.2,1,1.2c0.5,0,1-0.2,1.5-0.5l0,0.8c-0.5,0.3-1.1,0.5-1.8,0.5
		c-1.2,0-2-0.7-1.7-2.2c0.2-1.4,1.2-2.2,2.3-2.2c1.3,0,1.7,1,1.5,2.2C30,280.6,30,280.7,29.9,280.8L29.9,280.8z M28.4,279.1
		c-0.4,0-0.8,0.3-1,1H29C29.1,279.5,28.9,279.1,28.4,279.1z"/>
	<path id="path34" class="st1" d="M33.1,282.7l0-0.6c-0.4,0.4-0.8,0.7-1.4,0.7c-0.9,0-1.5-0.7-1.3-2.1c0.2-1.6,1.2-2.3,2.2-2.3
		c0.4,0,0.7,0.1,1,0.2l0.3-2l1.1-0.2l-1,6.3L33.1,282.7L33.1,282.7z M33.4,279.4c-0.2-0.1-0.4-0.2-0.8-0.2c-0.6,0-1,0.4-1.2,1.4
		c-0.1,0.8,0.2,1.2,0.6,1.2c0.4,0,0.7-0.2,1.1-0.6L33.4,279.4z"/>
	<path id="path36" class="st1" d="M37.2,282.7c-0.5,0-0.9-0.1-1.3-0.2l0.7-4.5l0.8-0.1l-0.3,1.9c0.2-0.2,0.6-0.4,1-0.4
		c0.7,0,1.1,0.5,1,1.6C38.9,282.2,38.1,282.7,37.2,282.7L37.2,282.7z M37.8,280.1c-0.3,0-0.5,0.2-0.8,0.4l-0.2,1.5
		c0.2,0.1,0.3,0.1,0.5,0.1c0.5,0,0.9-0.3,1-1C38.3,280.4,38.1,280.1,37.8,280.1L37.8,280.1z"/>
	<path id="path38" class="st1" d="M40.9,282.9c-0.4,0.8-0.8,1-1.4,1c-0.1,0-0.2,0-0.3,0l0-0.7c0.1,0,0.2,0,0.4,0
		c0.2,0,0.4-0.1,0.6-0.3l0.1-0.2l-0.7-3.2l0.8-0.1l0.4,2.3l1.1-2.2h0.8L40.9,282.9L40.9,282.9z"/>
</g>
</svg>
