<?xml version="1.0" encoding="utf-8"?>
<!-- Generator: Adobe Illustrator 24.0.1, SVG Export Plug-In . SVG Version: 6.00 Build 0)  -->
<svg version="1.1" id="Layer_1" xmlns="http://www.w3.org/2000/svg" xmlns:xlink="http://www.w3.org/1999/xlink" x="0px" y="0px"
	 viewBox="0 0 50 32" style="enable-background:new 0 0 50 32;" xml:space="preserve">
<style type="text/css">
	.st0{fill:url(#SVGID_1_);}
	.st1{fill:url(#SVGID_2_);}
	.st2{fill:url(#SVGID_3_);}
	.st3{fill:url(#SVGID_4_);}
	.st4{fill:#003585;}
</style>
<g>
	
		<linearGradient id="SVGID_1_" gradientUnits="userSpaceOnUse" x1="6.8431" y1="17.6307" x2="8.0202" y2="10.4864" gradientTransform="matrix(1 0 0 -1 0 32)">
		<stop  offset="0" style="stop-color:#2CCAFE"/>
		<stop  offset="1" style="stop-color:#0A91E7"/>
	</linearGradient>
	<path class="st0" d="M11,17c0.3,2-1,4-3.1,4.3c-2,0.3-3.9-1.1-4.3-3.1s1-4,3.1-4.3C8.8,13.6,10.7,15,11,17z"/>
	
		<linearGradient id="SVGID_2_" gradientUnits="userSpaceOnUse" x1="9.8258" y1="18.194" x2="8.4587" y2="15.6495" gradientTransform="matrix(1 0 0 -1 0 32)">
		<stop  offset="0" style="stop-color:#2CCAFE"/>
		<stop  offset="1" style="stop-color:#0A91E7"/>
	</linearGradient>
	<path class="st1" d="M6.4,14c1.2,0.2,2.7,0.4,4.6,2.7c0,0-0.2-0.8,0.1-1.1c0.4-0.3,1.1-0.1,1.2-0.3C12.5,14.7,8.4,13.4,6.4,14z"/>
	
		<linearGradient id="SVGID_3_" gradientUnits="userSpaceOnUse" x1="17.8283" y1="13.4507" x2="17.6017" y2="21.5884" gradientTransform="matrix(1 0 0 -1 0 32)">
		<stop  offset="0" style="stop-color:#FF8741"/>
		<stop  offset="1" style="stop-color:#FFA537"/>
	</linearGradient>
	<path class="st2" d="M13.6,15c-0.1-2.3,1.8-4.3,4.1-4.3c2.3-0.1,4.2,1.8,4.3,4.1c0.1,2.3-1.8,4.3-4.1,4.3S13.6,17.3,13.6,15z"/>
	
		<linearGradient id="SVGID_4_" gradientUnits="userSpaceOnUse" x1="14.3913" y1="12.9242" x2="15.435" y2="14.7954" gradientTransform="matrix(1 0 0 -1 0 32)">
		<stop  offset="0" style="stop-color:#FF8043"/>
		<stop  offset="1" style="stop-color:#FFA636"/>
	</linearGradient>
	<path class="st3" d="M18.3,19c-1.3-0.4-3-0.8-4.7-3.8c0,0,0.1,0.9-0.3,1.2c-0.4,0.3-1.3-0.1-1.4,0.2C11.6,17.3,15.9,19.4,18.3,19z"
		/>
	<path class="st4" d="M35.8,13.9c-0.5,0-0.9,0.2-1.2,0.5c0-0.3-0.2-0.5-0.5-0.5c-0.4,0-0.5,0.2-0.5,0.5v5c0,0.4,0.2,0.6,0.6,0.6
		c0.4,0,0.6-0.2,0.6-0.6v-1.6c0.3,0.3,0.7,0.4,1.1,0.4c1.2,0,1.8-1,1.8-2.2C37.5,14.6,36.7,13.9,35.8,13.9z M35.5,17.4
		c-0.7,0-0.9-0.7-0.9-1.3c0-0.7,0.2-1.3,0.9-1.3c0.6,0,0.9,0.6,0.9,1.3C36.4,16.6,36.2,17.4,35.5,17.4z M40.5,13.9
		c-0.5,0-0.9,0.2-1.2,0.5c0-0.3-0.2-0.5-0.5-0.5c-0.4,0-0.5,0.2-0.5,0.5v5c0,0.4,0.2,0.6,0.6,0.6c0.4,0,0.6-0.2,0.6-0.6v-1.6
		c0.3,0.3,0.7,0.4,1.1,0.4c1.2,0,1.8-1,1.8-2.2C42.3,14.6,41.4,13.9,40.5,13.9z M40.2,17.4c-0.7,0-0.9-0.7-0.9-1.3
		c0-0.7,0.2-1.3,0.9-1.3c0.6,0,0.9,0.6,0.9,1.3C41.1,16.6,40.9,17.4,40.2,17.4z M32.6,17v-1.9c0-0.8-0.8-1.2-1.9-1.2
		c-1.2,0-1.8,0.6-1.8,1.1c0,0.2,0.2,0.4,0.5,0.4c0.5,0,0.5-0.6,1.3-0.6c0.4,0,0.7,0.1,0.7,0.5c0,0.3-0.2,0.4-0.5,0.4l-0.7,0.1
		c-0.7,0.1-1.6,0.4-1.6,1.3c0,0.8,0.8,1.1,1.4,1.2c0.7,0,1.2-0.2,1.5-0.4c0.1,0.3,0.2,0.4,0.6,0.4c0.3,0,0.5-0.2,0.5-0.4
		C32.7,17.6,32.6,17.5,32.6,17z M31.5,16.3c0,0.7-0.4,1.2-1,1.2c-0.4,0-0.6-0.2-0.6-0.5c0-0.4,0.3-0.5,0.7-0.6l0.4-0.1
		c0.1,0,0.4-0.1,0.5-0.2V16.3z M44.9,18.7c-0.3,0.8-0.6,1.2-1.3,1.2h-0.1c-0.5,0-0.7-0.2-0.7-0.5c0-0.3,0.2-0.5,0.5-0.5h0.1
		c0.2,0,0.3,0,0.4-0.4l0-0.1L42.7,15c-0.1-0.3-0.1-0.4-0.1-0.5c0-0.3,0.2-0.6,0.6-0.6c0.3,0,0.5,0.2,0.6,0.4l0.7,2.7h0l0.7-2.7
		c0.1-0.3,0.3-0.4,0.6-0.4c0.3,0,0.6,0.2,0.6,0.6c0,0.1,0,0.3-0.1,0.5L44.9,18.7z M27,18.7c-0.3,0.8-0.6,1.2-1.3,1.2h-0.1
		c-0.5,0-0.7-0.2-0.7-0.5c0-0.3,0.2-0.5,0.5-0.5h0.1c0.2,0,0.3,0,0.4-0.4l0-0.1L24.8,15c-0.1-0.3-0.1-0.4-0.1-0.5
		c0-0.3,0.2-0.6,0.6-0.6c0.3,0,0.5,0.2,0.6,0.4l0.7,2.7h0l0.7-2.7c0.1-0.3,0.3-0.4,0.6-0.4c0.3,0,0.6,0.2,0.6,0.6
		c0,0.1,0,0.3-0.1,0.5L27,18.7z"/>
</g>
</svg>
